<?xml version="1.0" encoding="UTF-8" standalone="no"?>
<svg
   xmlns:dc="http://purl.org/dc/elements/1.1/"
   xmlns:cc="http://creativecommons.org/ns#"
   xmlns:rdf="http://www.w3.org/1999/02/22-rdf-syntax-ns#"
   xmlns:svg="http://www.w3.org/2000/svg"
   xmlns="http://www.w3.org/2000/svg"
   xmlns:sodipodi="http://sodipodi.sourceforge.net/DTD/sodipodi-0.dtd"
   xmlns:inkscape="http://www.inkscape.org/namespaces/inkscape"
   version="1.1"
   id="svg2"
   xml:space="preserve"
   width="621.58667"
   height="788.64001"
   viewBox="0 0 621.58667 788.64001"
   sodipodi:docname="donuts-box-publicdomainvectors.org.eps"><metadata
     id="metadata8"><rdf:RDF><cc:Work
         rdf:about=""><dc:format>image/svg+xml</dc:format><dc:type
           rdf:resource="http://purl.org/dc/dcmitype/StillImage" /></cc:Work></rdf:RDF></metadata><defs
     id="defs6" /><sodipodi:namedview
     pagecolor="#ffffff"
     bordercolor="#666666"
     borderopacity="1"
     objecttolerance="10"
     gridtolerance="10"
     guidetolerance="10"
     inkscape:pageopacity="0"
     inkscape:pageshadow="2"
     inkscape:window-width="640"
     inkscape:window-height="480"
     id="namedview4" /><g
     id="g10"
     inkscape:groupmode="layer"
     inkscape:label="ink_ext_XXXXXX"
     transform="matrix(1.3333333,0,0,-1.3333333,0,788.64)"><g
       id="g12"
       transform="scale(0.1)"><path
         d="m 1413.81,-0.0195313 c -4.5,0 -7.47,1.4414113 -8.91,4.2304713 -1.44,2.78906 -2.16,6.92966 -2.16,12.32816 V 123.461 c 0,4.769 0.99,8.281 2.97,10.621 1.98,2.34 4.68,3.508 8.1,3.508 3.33,0 6.12,-1.168 8.19,-3.598 2.16,-2.433 3.15,-5.851 3.15,-10.351 v -2.969 c 4.5,5.758 9.09,9.988 13.95,12.687 4.77,2.7 10.26,4.051 16.38,4.051 7.29,0 14.04,-1.98 20.16,-5.941 6.12,-3.957 10.98,-9.629 14.58,-17.188 3.6,-7.652 5.31,-16.5622 5.31,-26.9099 0,-7.6484 -0.99,-14.6719 -3.06,-20.9688 -1.98,-6.4804 -4.86,-11.7929 -8.46,-16.1132 -3.6,-4.4102 -7.83,-7.7383 -12.78,-9.9883 -4.86,-2.4297 -10.17,-3.5117 -15.75,-3.5117 -6.84,0 -12.51,1.3515 -17.1,4.2304 -4.68,2.8828 -9,7.0196 -13.23,12.5118 V 16.3594 c 0,-10.98049 -3.78,-16.3789313 -11.34,-16.3789313 M 1449.63,119.051 c -6.57,0 -12.06,-2.789 -16.56,-8.102 -4.5,-5.488 -6.75,-13.3201 -6.75,-23.8474 0,-9.9024 2.25,-17.5508 6.66,-22.9493 4.5,-5.4921 10.08,-8.2812 16.65,-8.2812 3.96,0 7.65,1.168 10.98,3.5977 3.33,2.4296 6.03,6.0312 8.1,10.7109 2.07,4.8594 3.06,10.6211 3.06,17.3711 0,6.5703 -0.99,12.2383 -2.88,16.8282 -1.89,4.773 -4.59,8.371 -8.01,10.891 -3.42,2.519 -7.11,3.781 -11.25,3.781"
         style="fill:#918f8f;fill-opacity:1;fill-rule:nonzero;stroke:none"
         id="path14" /><path
         d="m 1587.6,36.7891 c -3.24,0 -5.94,1.2617 -8.1,3.6015 -2.07,2.5196 -3.15,5.9414 -3.15,10.3516 v 3.1484 c -2.88,-3.6914 -5.85,-6.8398 -9,-9.3593 -3.15,-2.6094 -6.48,-4.5 -10.26,-5.7618 -3.69,-1.1679 -7.92,-1.8007 -12.69,-1.8007 -5.76,0 -10.89,1.2617 -15.39,3.6914 -4.59,2.5195 -8.1,5.9414 -10.62,10.2617 -2.97,5.3086 -4.41,12.8672 -4.41,22.6797 v 49.1404 c 0,4.949 1.08,8.637 3.24,11.071 2.16,2.429 4.95,3.687 8.46,3.687 3.6,0 6.57,-1.258 8.73,-3.687 2.16,-2.524 3.33,-6.211 3.33,-11.071 V 83.0508 c 0,-5.7617 0.45,-10.5313 1.35,-14.3985 0.99,-3.9609 2.61,-7.0234 5.04,-9.2734 2.34,-2.1562 5.67,-3.2383 9.72,-3.2383 4.05,0 7.83,1.2617 11.34,3.6914 3.6,2.4297 6.12,5.668 7.74,9.7188 1.35,3.5117 2.07,11.1601 2.07,23.039 v 30.1522 c 0,4.86 1.08,8.547 3.24,11.071 2.25,2.429 5.04,3.687 8.64,3.687 3.51,0 6.39,-1.258 8.46,-3.687 2.16,-2.434 3.24,-6.122 3.24,-11.071 V 50.9219 c 0,-4.6797 -0.99,-8.2813 -3.06,-10.6211 -2.07,-2.3399 -4.68,-3.5117 -7.92,-3.5117"
         style="fill:#918f8f;fill-opacity:1;fill-rule:nonzero;stroke:none"
         id="path16" /><path
         d="m 1674.72,36.7891 c -3.6,0 -7.11,0.4531 -10.35,1.3515 -3.15,0.8985 -5.94,2.0703 -8.19,3.6016 -2.25,1.4375 -4.14,2.9687 -5.76,4.5 -1.62,1.6172 -3.69,3.957 -6.3,7.1094 v -2.4297 c 0,-4.6797 -1.08,-8.1914 -3.24,-10.6211 -2.16,-2.3399 -4.86,-3.5117 -8.19,-3.5117 -3.33,0 -6.03,1.1718 -8.01,3.5117 -1.98,2.5195 -2.97,5.9414 -2.97,10.6211 V 159.191 c 0,4.95 0.9,8.731 2.88,11.34 1.89,2.61 4.59,3.867 8.1,3.867 3.69,0 6.48,-1.257 8.46,-3.687 1.98,-2.43 2.97,-5.941 2.97,-10.441 v -37.891 c 4.41,4.863 9,8.551 13.59,11.16 4.68,2.613 10.44,3.871 17.28,3.871 7.92,0 14.76,-1.98 20.79,-5.851 5.85,-3.957 10.53,-9.629 13.77,-17.008 3.33,-7.379 4.95,-16.1994 4.95,-26.3713 0,-7.5586 -0.9,-14.3984 -2.7,-20.6992 -1.89,-6.211 -4.5,-11.6094 -8.01,-16.2891 -3.51,-4.5898 -7.74,-8.1016 -12.69,-10.7109 -4.95,-2.4297 -10.44,-3.6914 -16.38,-3.6914 m -5.94,82.2619 c -4.59,0 -8.55,-1.352 -12.15,-3.871 -3.51,-2.61 -6.3,-6.301 -8.37,-11.25 -1.98,-4.7698 -2.97,-10.6175 -2.97,-17.3714 0,-9.8984 2.07,-17.3672 6.39,-22.7695 4.32,-5.2188 9.99,-7.918 17.1,-7.918 5.94,0 11.07,2.6992 15.39,8.1875 4.32,5.4023 6.48,13.1406 6.48,23.2227 0,6.5703 -0.9,12.2382 -2.7,16.9177 -1.8,4.77 -4.32,8.371 -7.65,10.981 -3.33,2.519 -7.11,3.871 -11.52,3.871"
         style="fill:#918f8f;fill-opacity:1;fill-rule:nonzero;stroke:none"
         id="path18" /><path
         d="m 1743.03,36.7891 c -3.51,0 -6.3,1.2617 -8.55,3.8711 -2.16,2.6093 -3.24,6.3007 -3.24,11.1601 V 159.281 c 0,5.039 1.08,8.731 3.15,11.34 2.16,2.52 5.04,3.777 8.64,3.777 3.6,0 6.48,-1.257 8.64,-3.777 2.16,-2.519 3.33,-6.301 3.33,-11.34 V 51.8203 c 0,-5.039 -1.17,-8.8203 -3.33,-11.3398 -2.25,-2.4297 -5.13,-3.6914 -8.64,-3.6914"
         style="fill:#918f8f;fill-opacity:1;fill-rule:nonzero;stroke:none"
         id="path20" /><path
         d="m 1791.27,36.7891 c -3.51,0 -6.3,1.2617 -8.46,3.8711 -2.16,2.6093 -3.33,6.3007 -3.33,11.1601 v 70.9217 c 0,4.86 1.17,8.547 3.33,11.071 2.16,2.429 4.95,3.687 8.46,3.687 3.42,0 6.39,-1.258 8.64,-3.687 2.16,-2.524 3.33,-5.942 3.33,-10.352 V 51.8203 c 0,-4.9492 -1.17,-8.7305 -3.33,-11.25 -2.25,-2.5195 -5.22,-3.7812 -8.64,-3.7812 m 0.27,112.3199 c -3.33,0 -6.12,0.993 -8.55,3.153 -2.25,2.16 -3.51,5.129 -3.51,9 0,3.508 1.26,6.39 3.69,8.73 2.34,2.25 5.13,3.328 8.37,3.328 3.06,0 5.76,-0.988 8.19,-3.058 2.34,-2.071 3.51,-5.043 3.51,-9 0,-3.782 -1.17,-6.75 -3.42,-8.91 -2.34,-2.161 -5.13,-3.243 -8.28,-3.243"
         style="fill:#918f8f;fill-opacity:1;fill-rule:nonzero;stroke:none"
         id="path22" /><path
         d="m 1869.84,36.9688 c -14.67,0 -26.19,4.5 -34.38,13.4101 -8.28,8.9102 -12.33,20.8828 -12.33,35.8203 0,10.1719 1.89,19.1718 5.58,26.9998 3.78,7.742 9.27,13.864 16.38,18.09 7.11,4.32 15.66,6.391 25.56,6.391 6.21,0 11.79,-0.899 16.92,-2.789 5.13,-1.891 9.54,-4.321 13.05,-7.289 3.6,-2.973 6.3,-6.122 8.19,-9.454 1.89,-3.328 2.79,-6.476 2.79,-9.359 0,-2.969 -0.99,-5.488 -3.15,-7.559 -2.07,-2.0698 -4.68,-3.0581 -7.65,-3.0581 -1.98,0 -3.6,0.539 -4.95,1.6172 -1.26,0.9919 -2.79,2.7029 -4.41,5.0429 -2.88,4.59 -5.94,8.098 -9.09,10.438 -3.15,2.25 -7.2,3.421 -11.97,3.421 -7.11,0 -12.78,-2.878 -17.01,-8.55 -4.32,-5.762 -6.48,-13.5902 -6.48,-23.4887 0,-4.6835 0.63,-9 1.71,-12.871 1.08,-3.961 2.7,-7.1993 4.77,-9.9922 2.07,-2.7891 4.59,-4.8594 7.56,-6.2969 2.97,-1.4414 6.21,-2.1602 9.72,-2.1602 4.77,0 8.82,1.168 12.24,3.5078 3.42,2.3399 6.39,5.7618 9,10.4415 1.44,2.8789 3.06,5.039 4.68,6.6601 1.71,1.5274 3.78,2.3399 6.21,2.3399 2.88,0 5.31,-1.1719 7.2,-3.4219 1.89,-2.3399 2.88,-4.7696 2.88,-7.3789 0,-3.1485 -0.9,-6.3907 -2.61,-9.8985 -1.8,-3.5117 -4.5,-6.8398 -8.1,-10.082 -3.69,-3.1484 -8.19,-5.668 -13.68,-7.6484 -5.58,-1.9805 -11.79,-2.8828 -18.63,-2.8828"
         style="fill:#918f8f;fill-opacity:1;fill-rule:nonzero;stroke:none"
         id="path24" /><path
         d="m 2009.88,36.7891 c -3.24,0 -5.94,1.1718 -8.1,3.6015 -2.07,2.5196 -3.15,5.9414 -3.15,10.5313 v 2.4297 c -3.15,-3.7813 -6.3,-6.9297 -9.45,-9.2696 -3.06,-2.4297 -6.48,-4.2304 -10.08,-5.4922 -3.6,-1.1679 -7.56,-1.8007 -11.88,-1.8007 -5.67,0 -10.89,1.2617 -15.75,3.6914 -4.86,2.6093 -9,6.1211 -12.51,10.8008 -3.6,4.6796 -6.21,10.1679 -8.1,16.4687 -1.8,6.3008 -2.7,13.0508 -2.7,20.4297 0,15.4803 3.6,27.6333 10.8,36.2693 7.29,8.641 16.83,12.961 28.62,12.961 6.84,0 12.69,-1.258 17.37,-3.781 4.68,-2.34 9.27,-6.117 13.68,-11.25 v 36.543 c 0,5.129 0.99,9 2.97,11.519 1.89,2.61 4.68,3.957 8.28,3.957 3.6,0 6.3,-1.168 8.28,-3.597 1.98,-2.34 2.97,-5.942 2.97,-10.531 V 50.9219 c 0,-4.6797 -1.08,-8.2813 -3.15,-10.6211 -2.07,-2.3399 -4.77,-3.5117 -8.1,-3.5117 m -35.46,82.2619 c -4.32,0 -8.19,-1.352 -11.7,-3.871 -3.33,-2.61 -6.03,-6.301 -7.92,-11.16 -1.89,-4.77 -2.79,-10.3481 -2.79,-16.7387 0,-6.75 0.99,-12.4219 2.97,-17.1915 1.98,-4.6796 4.68,-8.1914 8.19,-10.621 3.51,-2.4297 7.29,-3.5977 11.34,-3.5977 4.23,0 8.01,1.168 11.52,3.418 3.42,2.25 6.12,5.7617 8.28,10.4414 1.98,4.6797 3.06,10.5312 3.06,17.5508 0,6.6601 -1.08,12.2382 -3.06,17.0077 -2.16,4.863 -4.86,8.461 -8.37,10.981 -3.51,2.519 -7.38,3.781 -11.52,3.781"
         style="fill:#918f8f;fill-opacity:1;fill-rule:nonzero;stroke:none"
         id="path26" /><path
         d="m 2086.47,36.7891 c -7.2,0 -13.68,1.1718 -19.44,3.6015 -5.76,2.4297 -10.71,5.8516 -14.94,10.3516 -4.14,4.5898 -7.38,9.8086 -9.54,16.0195 -2.16,6.1172 -3.24,12.8672 -3.24,20.3399 0,7.5586 1.08,14.3984 3.24,20.6094 2.25,6.211 5.4,11.519 9.54,16.019 4.05,4.411 9.09,7.829 14.94,10.172 5.85,2.43 12.33,3.598 19.44,3.598 7.11,0 13.68,-1.168 19.53,-3.598 5.85,-2.433 10.89,-5.941 15.03,-10.441 4.14,-4.41 7.38,-9.809 9.54,-15.93 2.16,-6.211 3.24,-12.9607 3.24,-20.4294 0,-7.3789 -1.08,-14.1328 -3.24,-20.4297 -2.25,-6.211 -5.4,-11.6094 -9.63,-16.0235 -4.14,-4.4961 -9.18,-7.8281 -14.94,-10.3476 -5.76,-2.3399 -12.33,-3.5117 -19.53,-3.5117 m 0,82.3519 c -4.68,0 -8.73,-1.262 -12.33,-3.782 -3.51,-2.519 -6.21,-6.207 -8.19,-11.16 -1.89,-4.8592 -2.88,-10.5271 -2.88,-17.0974 0,-6.4805 0.99,-12.1524 2.88,-17.0118 1.89,-4.7695 4.59,-8.4609 8.1,-11.0703 3.51,-2.6093 7.65,-3.8672 12.42,-3.8672 7.11,0 12.87,2.7891 17.1,8.4571 4.32,5.6719 6.39,13.5 6.39,23.4922 0,10.0781 -2.07,17.9104 -6.39,23.5784 -4.23,5.582 -9.99,8.461 -17.1,8.461"
         style="fill:#918f8f;fill-opacity:1;fill-rule:nonzero;stroke:none"
         id="path28" /><path
         d="m 2274.75,36.7891 c -3.6,0 -6.57,1.2617 -8.82,3.9609 -2.34,2.6094 -3.51,6.4805 -3.51,11.6992 v 41.6719 c 0,5.3086 -0.18,9.5389 -0.63,12.7769 -0.45,3.243 -1.62,5.942 -3.51,8.102 -1.89,2.16 -4.86,3.332 -8.73,3.332 -3.06,0 -6.03,-0.992 -8.82,-2.973 -2.88,-1.886 -5.04,-4.5 -6.57,-7.828 -1.8,-4.14 -2.7,-11.5193 -2.7,-22.2302 V 52.4492 c 0,-5.2187 -1.08,-9.1797 -3.33,-11.789 -2.25,-2.6094 -5.31,-3.8711 -9,-3.8711 -3.6,0 -6.48,1.2617 -8.73,3.8711 -2.25,2.6093 -3.33,6.5703 -3.33,11.789 v 39.5117 c 0,6.211 -0.18,10.9801 -0.63,14.4881 -0.36,3.422 -1.53,6.301 -3.33,8.551 -1.71,2.16 -4.59,3.332 -8.46,3.332 -7.74,0 -12.87,-2.883 -15.39,-8.461 -2.43,-5.582 -3.6,-13.4999 -3.6,-23.9413 V 52.4492 c 0,-5.2187 -1.17,-9.0898 -3.33,-11.6992 -2.25,-2.6992 -5.22,-3.9609 -8.82,-3.9609 -3.69,0 -6.66,1.2617 -8.91,3.9609 -2.34,2.6094 -3.42,6.4805 -3.42,11.6094 v 70.9216 c 0,4.68 0.99,8.278 3.06,10.621 2.07,2.43 4.77,3.688 8.19,3.688 3.24,0 5.94,-1.168 8.1,-3.418 2.16,-2.25 3.24,-5.402 3.24,-9.363 v -2.34 c 4.14,5.133 8.55,8.91 13.23,11.344 4.68,2.339 9.99,3.597 15.66,3.597 5.94,0 11.07,-1.258 15.39,-3.781 4.23,-2.43 7.83,-6.207 10.53,-11.16 4.05,5.043 8.37,8.82 12.96,11.25 4.59,2.433 9.63,3.691 15.12,3.691 6.57,0 12.15,-1.258 16.83,-4.051 4.68,-2.609 8.19,-6.39 10.53,-11.429 2.07,-4.41 3.06,-11.52 3.06,-21.149 V 52.4492 c 0,-5.2187 -1.17,-9.1797 -3.33,-11.789 -2.34,-2.6094 -5.31,-3.8711 -9,-3.8711"
         style="fill:#918f8f;fill-opacity:1;fill-rule:nonzero;stroke:none"
         id="path30" /><path
         d="m 2384.91,36.7891 c -2.43,0 -4.77,1.1718 -7.2,3.5117 -2.34,2.4297 -4.95,5.9414 -7.56,10.4414 -5.76,-4.6836 -11.34,-8.1914 -16.65,-10.4414 -5.4,-2.4297 -11.43,-3.5117 -18.09,-3.5117 -6.12,0 -11.43,1.2617 -16.02,3.6914 -4.68,2.5195 -8.19,5.9414 -10.71,10.2617 -2.43,4.3203 -3.69,8.9101 -3.69,13.9492 0,6.8399 2.07,12.5977 6.21,17.3711 4.05,4.7695 9.72,8.0078 16.92,9.6289 1.53,0.3594 5.22,1.168 11.16,2.4297 6.03,1.2578 11.16,2.4297 15.39,3.5078 4.32,0.9922 8.91,2.3399 13.86,3.7811 -0.27,6.57 -1.53,11.43 -3.69,14.492 -2.25,3.059 -6.93,4.5 -13.95,4.5 -6.03,0 -10.53,-0.812 -13.59,-2.613 -3.06,-1.707 -5.67,-4.316 -7.83,-7.918 -2.16,-3.512 -3.69,-5.762 -4.59,-6.93 -0.9,-1.082 -2.88,-1.621 -5.76,-1.621 -2.7,0 -5.04,0.903 -6.93,2.61 -1.98,1.8 -2.97,4.05 -2.97,6.929 0,4.321 1.53,8.551 4.41,12.602 2.97,4.141 7.65,7.559 13.86,10.258 6.3,2.703 14.13,3.961 23.4,3.961 10.44,0 18.63,-1.258 24.66,-3.867 5.94,-2.524 10.17,-6.571 12.6,-12.153 2.52,-5.578 3.78,-12.961 3.78,-22.1405 0,-5.8476 0,-10.8007 -0.09,-14.8476 -0.09,-4.0508 -0.09,-8.5508 -0.18,-13.5 0,-4.6797 0.81,-9.543 2.25,-14.5821 1.44,-5.039 2.16,-8.2773 2.16,-9.7187 0,-2.6094 -1.17,-4.8594 -3.42,-7.0195 -2.25,-2.0703 -4.86,-3.0625 -7.74,-3.0625 m -16.38,49.8632 c -3.42,-1.3515 -8.55,-2.7929 -15.12,-4.2304 -6.66,-1.5313 -11.25,-2.6133 -13.86,-3.3321 -2.52,-0.7187 -4.95,-2.0703 -7.29,-4.0507 -2.34,-2.0703 -3.42,-4.9493 -3.42,-8.5469 0,-3.7813 1.35,-6.9297 4.05,-9.543 2.7,-2.6992 6.3,-3.957 10.71,-3.957 4.68,0 9.09,1.0781 12.96,3.2383 4.05,2.0703 6.93,4.9492 8.73,8.2812 2.16,3.7774 3.24,9.8985 3.24,18.5391 v 3.6015"
         style="fill:#918f8f;fill-opacity:1;fill-rule:nonzero;stroke:none"
         id="path32" /><path
         d="m 2427.75,36.7891 c -3.42,0 -6.3,1.2617 -8.46,3.8711 -2.16,2.6093 -3.24,6.3007 -3.24,11.1601 v 70.9217 c 0,4.86 1.08,8.547 3.24,11.071 2.16,2.429 5.04,3.687 8.46,3.687 3.51,0 6.39,-1.258 8.64,-3.687 2.25,-2.524 3.33,-5.942 3.33,-10.352 V 51.8203 c 0,-4.9492 -1.08,-8.7305 -3.33,-11.25 -2.25,-2.5195 -5.13,-3.7812 -8.64,-3.7812 m 0.27,112.3199 c -3.33,0 -6.12,0.993 -8.46,3.153 -2.34,2.16 -3.51,5.129 -3.51,9 0,3.508 1.17,6.39 3.6,8.73 2.34,2.25 5.22,3.328 8.37,3.328 3.06,0 5.85,-0.988 8.19,-3.058 2.34,-2.071 3.51,-5.043 3.51,-9 0,-3.782 -1.17,-6.75 -3.42,-8.91 -2.34,-2.161 -5.13,-3.243 -8.28,-3.243"
         style="fill:#918f8f;fill-opacity:1;fill-rule:nonzero;stroke:none"
         id="path34" /><path
         d="m 2536.47,36.7891 c -3.51,0 -6.39,1.2617 -8.55,3.8711 -2.16,2.6093 -3.33,6.3007 -3.33,11.1601 v 41.3086 c 0,8.1911 -1.08,14.4021 -3.24,18.7231 -2.16,4.32 -6.57,6.57 -13.05,6.57 -4.23,0 -8.1,-1.352 -11.52,-4.051 -3.51,-2.519 -6.03,-6.211 -7.65,-10.801 -1.17,-3.6911 -1.8,-10.5309 -1.8,-20.6989 V 51.8203 c 0,-5.039 -1.08,-8.8203 -3.33,-11.3398 -2.25,-2.4297 -5.13,-3.6914 -8.64,-3.6914 -3.42,0 -6.21,1.2617 -8.46,3.8711 -2.25,2.6093 -3.33,6.3007 -3.33,11.1601 v 71.6407 c 0,4.68 0.99,8.191 2.97,10.531 1.98,2.34 4.68,3.508 8.1,3.508 2.07,0 3.96,-0.539 5.67,-1.527 1.71,-0.993 3.06,-2.614 4.05,-4.594 0.99,-2.16 1.53,-4.59 1.53,-7.559 v -2.968 c 4.14,5.668 8.73,9.898 13.68,12.597 4.95,2.703 10.62,4.051 17.1,4.051 6.21,0 11.88,-1.348 16.83,-4.32 4.86,-2.789 8.55,-6.75 10.98,-11.969 1.62,-3.063 2.61,-6.391 3.06,-9.809 0.45,-3.511 0.72,-8.011 0.72,-13.4997 v -46.082 c 0,-4.9492 -1.17,-8.7305 -3.33,-11.25 -2.16,-2.5195 -4.95,-3.7812 -8.46,-3.7812"
         style="fill:#918f8f;fill-opacity:1;fill-rule:nonzero;stroke:none"
         id="path36" /><path
         d="m 2605.5,36.7891 c -3.33,0 -6.03,0.7226 -8.01,2.3398 -1.98,1.6211 -3.51,3.332 -4.41,5.3125 -0.99,1.8906 -2.61,5.668 -4.86,11.3399 l -22.59,58.3207 c -0.54,1.437 -1.08,2.878 -1.71,4.32 -0.45,1.437 -0.9,2.879 -1.35,4.5 -0.36,1.527 -0.54,2.789 -0.54,3.867 0,1.711 0.45,3.332 1.53,5.043 0.9,1.707 2.34,3.059 4.05,4.047 1.8,1.082 3.6,1.621 5.67,1.621 3.96,0 6.66,-1.168 8.1,-3.598 1.53,-2.343 3.15,-6.3 4.95,-11.793 l 19.17,-56.2496 20.7,58.6796 c 1.71,4.68 3.24,8.012 4.86,9.992 1.62,1.981 3.96,2.969 7.11,2.969 3.06,0 5.58,-1.078 7.74,-3.238 2.07,-2.071 3.15,-4.5 3.15,-7.293 0,-1.078 -0.18,-2.34 -0.54,-3.778 -0.36,-1.441 -0.81,-2.882 -1.35,-4.14 -0.45,-1.262 -0.99,-2.699 -1.71,-4.321 l -22.77,-58.9487 c -0.63,-1.711 -1.44,-3.8711 -2.43,-6.4805 -1.08,-2.6094 -2.16,-4.7695 -3.42,-6.75 -1.26,-1.8008 -2.79,-3.2383 -4.59,-4.2305 -1.89,-0.9883 -4.14,-1.5312 -6.75,-1.5312"
         style="fill:#918f8f;fill-opacity:1;fill-rule:nonzero;stroke:none"
         id="path38" /><path
         d="m 2707.47,36.7891 c -15.21,0 -27.09,4.5 -35.55,13.5898 -8.46,9.0899 -12.69,21.4219 -12.69,36.9024 0,7.3789 1.08,14.1287 3.15,20.4297 2.07,6.211 5.13,11.609 9.09,16.109 4.05,4.5 8.91,7.922 14.85,10.262 5.85,2.43 12.33,3.598 19.44,3.598 9.27,0 17.19,-1.981 23.85,-6.121 6.66,-4.047 11.61,-9.36 14.94,-15.746 3.33,-6.571 4.95,-13.141 4.95,-19.8911 0,-6.211 -1.62,-10.2617 -5.13,-12.0625 -3.42,-1.8906 -8.19,-2.7891 -14.4,-2.7891 h -46.44 c 0,-5.668 1.08,-10.6211 3.15,-14.9414 2.16,-4.2305 4.95,-7.4687 8.46,-9.7187 3.51,-2.1602 7.47,-3.2383 11.7,-3.2383 2.79,0 5.4,0.3594 7.74,0.9883 2.34,0.8086 4.59,1.8906 6.84,3.332 2.16,1.5273 4.23,3.0586 6.03,4.7695 1.89,1.7071 4.32,3.9571 7.29,6.9297 1.17,1.0781 2.97,1.6211 5.22,1.6211 2.43,0 4.41,-0.7227 5.85,-2.0703 1.53,-1.4414 2.25,-3.332 2.25,-5.9414 0,-2.25 -0.81,-4.8594 -2.52,-7.832 -1.62,-2.9688 -4.14,-5.8477 -7.56,-8.6368 -3.42,-2.7929 -7.65,-5.0429 -12.78,-6.8398 -5.13,-1.8008 -10.98,-2.7031 -17.73,-2.7031 m -2.52,83.6129 c -5.85,0 -10.8,-2.07 -14.49,-6.3 -3.87,-4.321 -6.12,-10.622 -6.93,-18.9028 h 43.02 c -0.54,8.4608 -2.79,14.7618 -6.57,18.9918 -3.78,4.141 -8.82,6.211 -15.03,6.211"
         style="fill:#918f8f;fill-opacity:1;fill-rule:nonzero;stroke:none"
         id="path40" /><path
         d="m 2811.6,36.9688 c -14.67,0 -26.1,4.5 -34.38,13.4101 -8.19,8.9102 -12.33,20.8828 -12.33,35.8203 0,10.1719 1.89,19.1718 5.67,26.9998 3.78,7.742 9.18,13.864 16.38,18.09 7.11,4.32 15.66,6.391 25.56,6.391 6.12,0 11.79,-0.899 16.92,-2.789 5.13,-1.891 9.45,-4.321 13.05,-7.289 3.6,-2.973 6.3,-6.122 8.19,-9.454 1.89,-3.328 2.79,-6.476 2.79,-9.359 0,-2.969 -0.99,-5.488 -3.24,-7.559 -2.07,-2.0698 -4.59,-3.0581 -7.65,-3.0581 -1.98,0 -3.6,0.539 -4.86,1.6172 -1.35,0.9919 -2.79,2.7029 -4.41,5.0429 -2.97,4.59 -5.94,8.098 -9.09,10.438 -3.15,2.25 -7.2,3.421 -12.06,3.421 -7.02,0 -12.69,-2.878 -16.92,-8.55 -4.32,-5.762 -6.48,-13.5902 -6.48,-23.4887 0,-4.6835 0.63,-9 1.62,-12.871 1.17,-3.961 2.7,-7.1993 4.86,-9.9922 2.07,-2.7891 4.59,-4.8594 7.56,-6.2969 2.88,-1.4414 6.12,-2.1602 9.72,-2.1602 4.77,0 8.82,1.168 12.24,3.5078 3.33,2.3399 6.39,5.7618 9,10.4415 1.44,2.8789 2.97,5.039 4.68,6.6601 1.71,1.5274 3.69,2.3399 6.21,2.3399 2.88,0 5.31,-1.1719 7.11,-3.4219 1.98,-2.3399 2.97,-4.7696 2.97,-7.3789 0,-3.1485 -0.9,-6.3907 -2.7,-9.8985 -1.8,-3.5117 -4.41,-6.8398 -8.1,-10.082 -3.6,-3.1484 -8.19,-5.668 -13.68,-7.6484 -5.49,-1.9805 -11.7,-2.8828 -18.63,-2.8828"
         style="fill:#918f8f;fill-opacity:1;fill-rule:nonzero;stroke:none"
         id="path42" /><path
         d="m 2905.56,36.7891 c -7.47,0 -13.05,1.2617 -16.92,3.8711 -3.78,2.6093 -6.3,6.2109 -7.47,10.8906 -1.26,4.5898 -1.8,10.7109 -1.8,18.3594 V 117.52 h -3.15 c -3.42,0 -6.03,0.902 -7.83,2.609 -1.8,1.621 -2.7,3.781 -2.7,6.391 0,2.609 0.99,4.769 2.79,6.39 1.98,1.711 4.68,2.52 8.28,2.52 h 2.61 v 14.941 c 0,3.871 0.09,7.109 0.27,9.359 0.27,2.25 0.72,4.141 1.71,5.852 0.9,1.617 2.25,3.059 4.05,4.141 1.71,0.988 3.6,1.527 5.76,1.527 3.06,0 5.76,-1.168 8.19,-3.508 1.62,-1.621 2.61,-3.512 3.06,-5.762 0.45,-2.25 0.63,-5.488 0.63,-9.718 V 135.43 h 8.73 c 3.42,0 5.94,-0.809 7.74,-2.52 1.8,-1.621 2.61,-3.781 2.61,-6.39 0,-3.329 -1.17,-5.668 -3.78,-7.02 -2.52,-1.258 -6.12,-1.98 -10.8,-1.98 h -4.5 V 71.8906 c 0,-3.8711 0.18,-6.8398 0.45,-9 0.27,-2.0703 0.99,-3.7812 2.16,-5.039 1.08,-1.2618 2.88,-1.9805 5.49,-1.9805 1.35,0 3.24,0.2695 5.67,0.8086 2.34,0.4492 4.14,0.7226 5.49,0.7226 1.89,0 3.69,-0.8125 5.22,-2.3398 1.53,-1.6211 2.25,-3.6016 2.25,-5.9414 0,-4.0508 -1.98,-7.0195 -6.21,-9.1797 -4.23,-2.1601 -10.17,-3.1523 -18,-3.1523"
         style="fill:#918f8f;fill-opacity:1;fill-rule:nonzero;stroke:none"
         id="path44" /><path
         d="m 2979.99,36.7891 c -7.29,0 -13.77,1.1718 -19.44,3.6015 -5.76,2.4297 -10.71,5.8516 -14.94,10.3516 -4.14,4.5898 -7.38,9.8086 -9.54,16.0195 -2.16,6.1172 -3.24,12.8672 -3.24,20.3399 0,7.5586 1.08,14.3984 3.24,20.6094 2.25,6.211 5.4,11.519 9.54,16.019 4.14,4.411 9.09,7.829 14.94,10.172 5.94,2.43 12.33,3.598 19.44,3.598 7.2,0 13.68,-1.168 19.53,-3.598 5.85,-2.433 10.89,-5.941 15.03,-10.441 4.14,-4.41 7.38,-9.809 9.54,-15.93 2.16,-6.211 3.24,-12.9607 3.24,-20.4294 0,-7.3789 -1.08,-14.1328 -3.33,-20.4297 -2.16,-6.211 -5.4,-11.6094 -9.54,-16.0235 -4.14,-4.4961 -9.18,-7.8281 -14.94,-10.3476 -5.76,-2.3399 -12.24,-3.5117 -19.53,-3.5117 m 0,82.3519 c -4.68,0 -8.73,-1.262 -12.33,-3.782 -3.51,-2.519 -6.21,-6.207 -8.1,-11.16 -1.98,-4.8592 -2.97,-10.5271 -2.97,-17.0974 0,-6.4805 0.99,-12.1524 2.88,-17.0118 1.89,-4.7695 4.59,-8.4609 8.1,-11.0703 3.51,-2.6093 7.56,-3.8672 12.42,-3.8672 7.2,0 12.87,2.7891 17.19,8.4571 4.23,5.6719 6.39,13.5 6.39,23.4922 0,10.0781 -2.16,17.9104 -6.39,23.5784 -4.32,5.582 -9.99,8.461 -17.19,8.461"
         style="fill:#918f8f;fill-opacity:1;fill-rule:nonzero;stroke:none"
         id="path46" /><path
         d="m 3057.66,36.7891 c -3.42,0 -6.3,1.2617 -8.46,3.7812 -2.16,2.5195 -3.24,6.3008 -3.24,11.25 v 69.0317 c 0,11.16 3.78,16.648 11.52,16.648 3.87,0 6.75,-1.348 8.55,-3.871 1.71,-2.609 2.61,-6.477 2.88,-11.52 2.79,5.043 5.76,8.911 8.73,11.52 2.97,2.523 6.93,3.871 11.88,3.871 5.04,0 9.9,-1.348 14.58,-3.871 4.68,-2.609 7.02,-6.117 7.02,-10.348 0,-3.062 -0.99,-5.582 -2.97,-7.468 -1.98,-1.981 -4.14,-2.973 -6.48,-2.973 -0.9,0 -2.97,0.539 -6.3,1.711 -3.33,1.078 -6.3,1.621 -8.91,1.621 -3.42,0 -6.21,-0.902 -8.46,-2.883 -2.16,-1.887 -3.87,-4.68 -5.13,-8.457 -1.26,-3.781 -2.07,-8.1914 -2.52,-13.4101 -0.45,-5.1328 -0.72,-11.4297 -0.72,-18.9024 V 51.8203 c 0,-5.039 -1.08,-8.8203 -3.33,-11.3398 -2.34,-2.4297 -5.22,-3.6914 -8.64,-3.6914"
         style="fill:#918f8f;fill-opacity:1;fill-rule:nonzero;stroke:none"
         id="path48" /><path
         d="m 3154.41,36.7891 c -8.46,0 -15.84,1.3515 -21.96,4.0507 -6.03,2.6993 -10.53,6.1211 -13.41,10.1719 -2.97,4.0508 -4.41,8.1875 -4.41,12.3281 0,2.6993 0.9,5.0391 2.79,6.9297 1.89,1.9805 4.23,2.9727 7.02,2.9727 2.52,0 4.5,-0.7227 5.76,-1.8906 1.35,-1.3516 2.61,-3.1524 3.87,-5.4024 2.43,-4.4101 5.31,-7.7383 8.73,-9.8984 3.33,-2.25 8.01,-3.332 13.95,-3.332 4.68,0 8.55,1.1718 11.61,3.332 3.06,2.25 4.68,4.7695 4.68,7.5586 0,4.4101 -1.62,7.6523 -4.77,9.539 -3.24,2.0704 -8.37,3.961 -15.66,5.7618 -8.19,2.1601 -14.85,4.4101 -19.98,6.6601 -5.13,2.3399 -9.27,5.4883 -12.33,9.2695 -3.06,3.7813 -4.59,8.4612 -4.59,14.0392 0,4.953 1.35,9.723 4.23,14.043 2.88,4.5 7.11,8.008 12.6,10.617 5.58,2.613 12.24,3.961 20.07,3.961 6.12,0 11.7,-0.629 16.56,-1.98 4.86,-1.348 9,-3.149 12.24,-5.399 3.33,-2.25 5.85,-4.68 7.56,-7.379 1.71,-2.793 2.52,-5.402 2.52,-8.012 0,-2.878 -0.9,-5.128 -2.7,-7.019 -1.89,-1.711 -4.5,-2.699 -7.83,-2.699 -2.43,0 -4.5,0.718 -6.21,2.25 -1.71,1.437 -3.69,3.597 -5.85,6.48 -1.8,2.43 -3.96,4.321 -6.39,5.758 -2.43,1.441 -5.76,2.25 -9.9,2.25 -4.32,0 -7.92,-0.988 -10.71,-2.879 -2.79,-1.891 -4.23,-4.32 -4.23,-7.199 0,-2.52 0.99,-4.68 3.06,-6.391 2.16,-1.621 4.95,-2.972 8.46,-4.14 3.6,-1.078 8.46,-2.4301 14.67,-3.9613 7.38,-1.8906 13.32,-4.1406 18,-6.75 4.68,-2.5195 8.19,-5.668 10.62,-9.1797 2.43,-3.5977 3.69,-7.5586 3.69,-12.1484 0,-6.8399 -1.62,-12.6914 -4.86,-17.5508 -3.15,-4.8594 -7.92,-8.5508 -14.13,-11.0703 -6.21,-2.4297 -13.77,-3.6914 -22.77,-3.6914"
         style="fill:#918f8f;fill-opacity:1;fill-rule:nonzero;stroke:none"
         id="path50" /><path
         d="m 3223.08,36.7891 c -3.6,0 -6.66,1.1718 -9.27,3.6015 -2.61,2.4297 -3.96,5.8516 -3.96,10.1719 0,3.5977 1.26,6.8398 3.69,9.5391 2.52,2.6093 5.67,3.957 9.27,3.957 3.69,0 6.75,-1.3477 9.27,-3.957 2.61,-2.6094 3.96,-5.8516 3.96,-9.5391 0,-4.3203 -1.35,-7.6523 -3.96,-10.1719 -2.52,-2.4297 -5.49,-3.6015 -9,-3.6015"
         style="fill:#918f8f;fill-opacity:1;fill-rule:nonzero;stroke:none"
         id="path52" /><path
         d="m 3304.53,36.7891 c -7.2,0 -13.68,1.1718 -19.35,3.6015 -5.76,2.4297 -10.71,5.8516 -14.94,10.3516 -4.23,4.5898 -7.38,9.8086 -9.63,16.0195 -2.07,6.1172 -3.24,12.8672 -3.24,20.3399 0,7.5586 1.17,14.3984 3.33,20.6094 2.25,6.211 5.4,11.519 9.45,16.019 4.14,4.411 9.18,7.829 15.03,10.172 5.85,2.43 12.24,3.598 19.35,3.598 7.2,0 13.68,-1.168 19.62,-3.598 5.85,-2.433 10.8,-5.941 15.03,-10.441 4.14,-4.41 7.29,-9.809 9.54,-15.93 2.16,-6.211 3.24,-12.9607 3.24,-20.4294 0,-7.3789 -1.08,-14.1328 -3.33,-20.4297 -2.25,-6.211 -5.4,-11.6094 -9.54,-16.0235 -4.23,-4.4961 -9.18,-7.8281 -14.94,-10.3476 -5.85,-2.3399 -12.33,-3.5117 -19.62,-3.5117 m 0,82.3519 c -4.68,0 -8.64,-1.262 -12.24,-3.782 -3.51,-2.519 -6.3,-6.207 -8.19,-11.16 -1.89,-4.8592 -2.88,-10.5271 -2.88,-17.0974 0,-6.4805 0.99,-12.1524 2.79,-17.0118 1.98,-4.7695 4.68,-8.4609 8.19,-11.0703 3.51,-2.6093 7.56,-3.8672 12.33,-3.8672 7.2,0 12.87,2.7891 17.19,8.4571 4.23,5.6719 6.39,13.5 6.39,23.4922 0,10.0781 -2.16,17.9104 -6.39,23.5784 -4.32,5.582 -9.99,8.461 -17.19,8.461"
         style="fill:#918f8f;fill-opacity:1;fill-rule:nonzero;stroke:none"
         id="path54" /><path
         d="m 3382.29,36.7891 c -3.51,0 -6.3,1.2617 -8.46,3.7812 -2.25,2.5195 -3.33,6.3008 -3.33,11.25 v 69.0317 c 0,11.16 3.87,16.648 11.61,16.648 3.96,0 6.75,-1.348 8.46,-3.871 1.71,-2.609 2.7,-6.477 2.97,-11.52 2.79,5.043 5.67,8.911 8.64,11.52 2.97,2.523 7.02,3.871 11.97,3.871 5.04,0 9.9,-1.348 14.49,-3.871 4.77,-2.609 7.11,-6.117 7.11,-10.348 0,-3.062 -0.99,-5.582 -2.97,-7.468 -2.07,-1.981 -4.14,-2.973 -6.57,-2.973 -0.81,0 -2.88,0.539 -6.21,1.711 -3.33,1.078 -6.3,1.621 -8.91,1.621 -3.42,0 -6.3,-0.902 -8.55,-2.883 -2.16,-1.887 -3.87,-4.68 -5.13,-8.457 -1.17,-3.781 -1.98,-8.1914 -2.43,-13.4101 -0.45,-5.1328 -0.72,-11.4297 -0.72,-18.9024 V 51.8203 c 0,-5.039 -1.17,-8.8203 -3.42,-11.3398 -2.25,-2.4297 -5.13,-3.6914 -8.55,-3.6914"
         style="fill:#918f8f;fill-opacity:1;fill-rule:nonzero;stroke:none"
         id="path56" /><path
         d="m 3484.08,-0.0195313 c -8.19,0 -15.57,1.1718713 -21.96,3.6015613 -6.48,2.42969 -11.43,5.48828 -14.85,9.26957 -3.51,3.7773 -5.31,7.6484 -5.31,11.6992 0,2.9687 0.99,5.4883 3.06,7.3789 1.89,1.8906 4.32,2.8789 7.11,2.8789 3.51,0 6.48,-1.6172 9.09,-4.8594 1.35,-1.6172 2.7,-3.3281 3.96,-4.9492 1.35,-1.7109 2.88,-3.0586 4.5,-4.2305 1.71,-1.2578 3.69,-2.0703 6.03,-2.6992 2.25,-0.539 4.95,-0.8086 8.01,-0.8086 6.12,0 10.89,0.8985 14.31,2.6094 3.33,1.8008 5.76,4.3203 7.11,7.4687 1.35,3.2422 2.16,6.6602 2.34,10.3516 0.27,3.6875 0.45,9.5391 0.63,17.6406 -3.69,-5.3125 -7.92,-9.3593 -12.69,-12.1523 -4.77,-2.7891 -10.53,-4.1406 -17.1,-4.1406 -8.01,0 -14.94,2.0703 -20.79,6.3906 -6.03,4.2305 -10.62,10.082 -13.77,17.8203 -3.15,7.5625 -4.77,16.3789 -4.77,26.3711 0,7.4687 0.9,14.2189 2.97,20.1599 1.89,6.032 4.59,11.071 8.28,15.211 3.51,4.047 7.74,7.199 12.42,9.27 4.68,2.07 9.81,3.148 15.48,3.148 6.66,0 12.51,-1.351 17.46,-4.051 4.95,-2.699 9.54,-6.929 13.77,-12.687 V 124 c 0,4.32 0.99,7.652 3.06,10.082 1.98,2.34 4.59,3.508 7.74,3.508 4.68,0 7.65,-1.531 9.18,-4.68 1.53,-3.148 2.25,-7.648 2.25,-13.5 V 47.3203 c 0,-8.1914 -0.9,-15.3008 -2.52,-21.1484 -1.71,-6.0313 -4.41,-10.8906 -8.1,-14.7617 -3.69,-3.87114 -8.55,-6.75004 -14.49,-8.64067 -6.03,-1.796874 -13.5,-2.7890613 -22.41,-2.7890613 M 3485.25,119.051 c -6.75,0 -12.24,-2.789 -16.29,-8.102 -4.14,-5.398 -6.12,-13.0467 -6.12,-23.0388 0,-9.9883 2.07,-17.5508 6.3,-22.7696 4.14,-5.1289 9.63,-7.7383 16.29,-7.7383 3.87,0 7.65,1.168 11.16,3.418 3.51,2.1602 6.39,5.4922 8.64,9.8985 2.16,4.5 3.24,9.9023 3.24,16.2031 0,10.1679 -2.16,18.0001 -6.39,23.5781 -4.23,5.672 -9.9,8.551 -16.83,8.551"
         style="fill:#918f8f;fill-opacity:1;fill-rule:nonzero;stroke:none"
         id="path58" /><path
         d="m 2467.17,237.492 c -38.34,0 -71.19,14.219 -98.37,42.571 -27.18,28.437 -40.77,62.726 -40.77,102.867 0,40.05 13.59,74.34 40.77,102.781 27.18,28.348 60.03,42.57 98.37,42.57 38.43,0 71.19,-14.222 98.46,-42.57 27.18,-28.441 40.77,-62.731 40.77,-102.781 0,-40.141 -13.59,-74.43 -40.77,-102.867 -27.27,-28.352 -60.03,-42.571 -98.46,-42.571 m -53.62,48.449 c 15.72,-10.402 33.6,-15.601 53.62,-15.601 28.98,0 53.46,10.89 73.44,32.672 19.98,21.687 29.88,48.328 29.88,79.918 0,28.402 -8.05,52.851 -24.28,73.34 l 7.72,9.91 -20.25,17.191 -6.38,-8.191 c -17.25,13.48 -37.29,20.25 -60.13,20.25 -28.98,0 -53.46,-10.891 -73.44,-32.578 -19.98,-21.782 -29.97,-48.422 -29.97,-79.922 0,-31.418 9.89,-57.938 29.65,-79.571 l -9.04,-11.597 20.25,-17.282 8.93,11.461 m 57.49,14.641 c -14.71,0 -27.5,3.309 -38.39,9.879 l 21.3,27.359 c 5.3,-2.929 11.48,-4.39 18.53,-4.39 18.9,0 28.98,9.09 29.97,27.269 h 35.28 c -2.52,-18.988 -10.35,-33.84 -23.31,-44.457 -11.97,-10.441 -26.46,-15.66 -43.38,-15.66 m -58.02,27.938 c -11,14.82 -16.5,33.371 -16.5,55.671 0,24.75 6.39,44.551 19.26,59.579 12.87,14.941 31.05,22.5 54.45,22.5 15.92,0 29.6,-3.969 40.96,-11.758 l -20.12,-25.821 c -4.64,3.09 -10.6,4.641 -17.87,4.641 -27.27,0 -40.86,-16.109 -40.86,-48.332 0,-9.82 1.49,-18.5 4.43,-25.988 l -23.75,-30.492 m 124.71,81.05 h -27.89 l 19.53,25.082 c 4.13,-7.281 6.91,-15.652 8.36,-25.082"
         style="fill:#918f8f;fill-opacity:1;fill-rule:nonzero;stroke:none"
         id="path60" /><path
         d="m 2404.62,274.48 -20.25,17.282 9.04,11.597 19.61,25.161 23.75,30.492 54.3,69.679 20.12,25.821 16.11,20.668 6.38,8.191 20.25,-17.191 -7.72,-9.91 -16.84,-21.618 -19.53,-25.082 -55.89,-71.75 -21.3,-27.359 -19.1,-24.52 -8.93,-11.461"
         style="fill:#918f8f;fill-opacity:1;fill-rule:nonzero;stroke:none"
         id="path62" /><path
         d="m 2330.94,890.281 c 1283.84,0 2330.94,591.479 2330.94,1316.689 0,725.21 -1047.1,1316.7 -2330.94,1316.7 C 1047.1,3523.67 0,2932.18 0,2206.97 0,1481.76 1047.1,890.281 2330.94,890.281"
         style="fill:#e8e8e7;fill-opacity:1;fill-rule:evenodd;stroke:none"
         id="path64" /><path
         d="M 343.73,2507.01 2235.33,3599.13 4126.94,2507.01 2235.33,1414.89 343.73,2507.01"
         style="fill:#948681;fill-opacity:1;fill-rule:evenodd;stroke:none"
         id="path66" /><path
         d="M 343.73,2136.49 2235.33,3233.21 4126.94,2136.49 2235.33,1039.77 343.73,2136.49"
         style="fill:#463d3b;fill-opacity:1;fill-rule:evenodd;stroke:none"
         id="path68" /><path
         d="m 2439.11,2827.73 c -53.17,61.22 -156.04,102.72 -274.22,102.72 -118.19,0 -221.04,-41.5 -274.21,-102.72 53.17,-61.22 156.02,-102.72 274.21,-102.72 118.18,0 221.05,41.5 274.22,102.72 z m -274.22,384.16 c 363.36,0 657.93,-186.42 657.93,-416.37 0,-229.96 -294.57,-416.37 -657.93,-416.37 -363.38,0 -657.94,186.41 -657.94,416.37 0,229.95 294.56,416.37 657.94,416.37"
         style="fill:#f1a50f;fill-opacity:1;fill-rule:evenodd;stroke:none"
         id="path70" /><path
         d="m 2200.85,3058.23 c -163.34,0 -295.77,-64.91 -295.77,-144.96 0,-80.06 132.43,-144.96 295.77,-144.96 163.36,0 295.79,64.9 295.79,144.96 0,80.05 -132.43,144.96 -295.79,144.96 z M 2149.61,3272 c 333.97,0 604.71,-153.4 604.71,-342.63 0,-189.23 -270.74,-342.63 -604.71,-342.63 -333.98,0 -604.72,153.4 -604.72,342.63 0,189.23 270.74,342.63 604.72,342.63"
         style="fill:#ecdab2;fill-opacity:1;fill-rule:evenodd;stroke:none"
         id="path72" /><path
         d="m 1790.87,3020.07 c -0.85,5.67 3.06,10.95 8.72,11.8 5.66,0.85 10.95,-3.06 11.78,-8.72 l 5.85,-38.07 c 0.87,-5.65 -3.04,-10.93 -8.7,-11.78 -5.67,-0.85 -10.95,3.04 -11.8,8.71 z m 150.28,39.57 c -5.68,-0.51 -10.7,3.68 -11.21,9.36 -0.53,5.69 3.66,10.71 9.37,11.23 l 16.07,1.46 c 5.7,0.52 10.72,-3.68 11.25,-9.36 0.49,-5.68 -3.7,-10.7 -9.35,-11.22 z m 82.82,93.84 c -1.58,5.52 1.63,11.24 7.12,12.82 5.51,1.57 11.25,-1.63 12.82,-7.14 l 5.85,-20.49 c 1.57,-5.51 -1.63,-11.24 -7.13,-12.81 -5.52,-1.57 -11.25,1.63 -12.81,7.12 z m 253,-30.44 c -3.01,4.86 -1.52,11.24 3.32,14.26 4.88,3.02 11.25,1.54 14.27,-3.32 l 7.32,-11.71 c 3.03,-4.86 1.56,-11.25 -3.32,-14.28 -4.84,-3.01 -11.25,-1.52 -14.26,3.33 z m 184.68,12.69 c 3.16,4.76 9.62,6.05 14.38,2.87 4.75,-3.18 6.06,-9.62 2.87,-14.39 l -11.7,-17.56 c -3.18,-4.77 -9.63,-6.06 -14.39,-2.89 -4.77,3.19 -6.07,9.62 -2.89,14.39 z m 57.25,-93.54 c -4.82,3.07 -6.23,9.46 -3.16,14.27 3.06,4.81 9.44,6.22 14.27,3.16 l 16.1,-10.25 c 4.82,-3.07 6.21,-9.45 3.16,-14.27 -3.07,-4.81 -9.45,-6.23 -14.28,-3.16 z m 31.89,-99.66 c -4.05,4.06 -4.05,10.63 0,14.68 4.06,4.05 10.63,4.05 14.67,0 l 14.65,-14.65 c 4.03,-4.04 4.03,-10.62 0,-14.66 -4.05,-4.06 -10.63,-4.06 -14.69,0 z m -43.85,-101.58 c -1.11,5.63 2.53,11.1 8.16,12.21 5.62,1.11 11.08,-2.53 12.19,-8.15 l 2.94,-14.64 c 1.12,-5.62 -2.52,-11.09 -8.15,-12.21 -5.62,-1.11 -11.07,2.53 -12.19,8.14 z m -59.19,-96.7 c 4.5,3.53 11.03,2.76 14.57,-1.76 3.52,-4.49 2.76,-11 -1.75,-14.55 l -20.5,-16.1 c -4.51,-3.53 -11,-2.75 -14.55,1.75 -3.55,4.49 -2.76,11.01 1.74,14.55 z m -102.6,-14.76 c 3.63,4.4 10.13,5.04 14.56,1.4 4.39,-3.61 5.04,-10.13 1.41,-14.54 l -20.49,-24.88 c -3.64,-4.42 -10.16,-5.05 -14.57,-1.43 -4.39,3.64 -5.03,10.14 -1.41,14.55 z m -152.64,-36.17 c -1.8,5.42 1.15,11.25 6.57,13.04 5.41,1.8 11.26,-1.14 13.04,-6.56 l 5.87,-17.58 c 1.8,-5.4 -1.15,-11.25 -6.56,-13.04 -5.42,-1.79 -11.27,1.16 -13.05,6.57 z m -134.56,34.75 c 2.04,5.32 8.02,8 13.35,5.96 5.33,-2.03 8,-8.01 5.96,-13.34 l -7.33,-19.04 c -2.03,-5.33 -8,-7.98 -13.34,-5.96 -5.32,2.04 -7.99,8.02 -5.95,13.35 z m -108.16,33.17 c 4.99,2.8 11.31,1.01 14.13,-3.97 2.79,-4.99 1.01,-11.31 -3.99,-14.11 l -23.42,-13.18 c -4.99,-2.8 -11.32,-1.02 -14.12,3.97 -2.79,4.99 -1.02,11.32 3.99,14.11 z m -64.58,75.29 c 4.87,3.02 11.25,1.53 14.26,-3.32 3.03,-4.87 1.54,-11.25 -3.32,-14.27 l -17.81,-11.11 c -4.85,-3.02 -11.25,-1.53 -14.28,3.33 -3.02,4.85 -1.52,11.24 3.33,14.26 z m -78.48,12.04 c 3.89,4.19 10.45,4.42 14.63,0.53 4.17,-3.9 4.41,-10.45 0.52,-14.64 l -19.04,-20.5 c -3.89,-4.18 -10.44,-4.41 -14.63,-0.52 -4.18,3.89 -4.42,10.45 -0.53,14.63 z m -182.64,36.97 c -3.17,4.78 -1.88,11.22 2.89,14.4 4.78,3.17 11.21,1.88 14.4,-2.88 l 11.71,-17.57 c 3.16,-4.77 1.88,-11.21 -2.88,-14.39 -4.77,-3.17 -11.21,-1.89 -14.38,2.87 z m 22.84,106.75 c -5.7,-0.57 -10.76,3.6 -11.3,9.28 -0.55,5.68 3.58,10.75 9.26,11.31 l 29.3,2.93 c 5.69,0.56 10.75,-3.6 11.3,-9.28 0.56,-5.7 -3.61,-10.75 -9.27,-11.31 z m 70.18,133.2 c -5.72,0.32 -10.08,5.2 -9.78,10.9 0.3,5.71 5.19,10.08 10.91,9.77 l 26.35,-1.46 c 5.7,-0.31 10.08,-5.19 9.76,-10.91 -0.33,-5.7 -5.19,-10.07 -10.89,-9.76 z m 172.22,48.65 c -5.56,1.43 -8.88,7.08 -7.45,12.59 1.44,5.54 7.1,8.86 12.61,7.42 l 17.95,-4.69 c 5.54,-1.43 8.86,-7.07 7.42,-12.61 -1.43,-5.53 -7.08,-8.84 -12.6,-7.4 z m -54.61,-57.91 c -0.33,5.71 4.06,10.58 9.75,10.89 5.73,0.32 10.61,-4.05 10.91,-9.76 l 1.48,-26.36 c 0.3,-5.71 -4.08,-10.59 -9.78,-10.9 -5.7,-0.31 -10.59,4.05 -10.91,9.77 z m 282.54,103.21 c -3.97,4.12 -3.83,10.67 0.28,14.63 4.13,3.96 10.66,3.83 14.63,-0.29 l 14.53,-15.03 c 3.94,-4.11 3.82,-10.67 -0.3,-14.63 -4.11,-3.97 -10.67,-3.83 -14.63,0.28 z m 120.31,10.32 c -3.11,4.8 -1.74,11.2 3.06,14.32 4.79,3.1 11.19,1.74 14.3,-3.05 l 18.42,-28.26 c 3.11,-4.8 1.74,-11.2 -3.04,-14.32 -4.79,-3.11 -11.19,-1.75 -14.32,3.04 z m 94.36,-17.58 c -2.29,5.25 0.08,11.36 5.32,13.66 5.22,2.31 11.35,-0.06 13.66,-5.3 l 9.45,-21.34 c 2.31,-5.24 -0.08,-11.35 -5.32,-13.67 -5.25,-2.3 -11.36,0.08 -13.66,5.31 z m 176.32,-63.06 c -3.98,4.09 -3.9,10.64 0.21,14.62 4.07,4 10.64,3.9 14.63,-0.2 l 13.64,-14.08 c 3.96,-4.1 3.89,-10.65 -0.21,-14.63 -4.09,-4 -10.66,-3.9 -14.63,0.19 z m 83.18,-57.65 c -2.68,5.06 -0.72,11.33 4.34,13.98 5.06,2.67 11.33,0.73 13.97,-4.33 l 13.19,-24.89 c 2.67,-5.06 0.72,-11.32 -4.34,-13.99 -5.05,-2.66 -11.32,-0.72 -13.98,4.34 z m 63.53,-158.13 c 1.4,5.55 7.02,8.93 12.57,7.54 5.56,-1.38 8.92,-7.01 7.54,-12.56 l -7.33,-29.28 c -1.37,-5.55 -7,-8.93 -12.55,-7.54 -5.55,1.39 -8.95,7.01 -7.55,12.57 z m -49.23,-114.59 c 3.62,4.44 10.12,5.11 14.56,1.51 4.44,-3.61 5.11,-10.12 1.49,-14.54 l -24.88,-30.76 c -3.62,-4.44 -10.11,-5.1 -14.55,-1.49 -4.43,3.6 -5.11,10.12 -1.49,14.55 z m -900.21,94.95 c -3.79,4.27 -3.42,10.83 0.87,14.62 4.26,3.81 10.81,3.43 14.63,-0.84 l 11.71,-13.18 c 3.8,-4.29 3.4,-10.83 -0.86,-14.64 -4.27,-3.8 -10.83,-3.42 -14.63,0.86 l -11.72,13.18"
         style="fill:#f1427d;fill-opacity:1;fill-rule:evenodd;stroke:none"
         id="path74" /><path
         d="m 2288.6,2664.66 c -4.66,3.29 -5.78,9.75 -2.49,14.44 3.28,4.67 9.74,5.8 14.42,2.51 l 24.88,-17.57 c 4.68,-3.29 5.81,-9.76 2.53,-14.44 -3.29,-4.67 -9.77,-5.8 -14.42,-2.51 z m 366.32,181.4 c -4.77,3.16 -6.07,9.59 -2.94,14.35 3.18,4.77 9.59,6.07 14.37,2.92 l 8.77,-5.86 c 4.77,-3.15 6.08,-9.57 2.93,-14.34 -3.16,-4.78 -9.57,-6.08 -14.37,-2.92 z m 14.35,151.01 c -4.64,3.33 -5.73,9.79 -2.43,14.44 3.3,4.66 9.77,5.74 14.44,2.43 l 20.5,-14.65 c 4.64,-3.3 5.73,-9.76 2.41,-14.41 -3.3,-4.67 -9.76,-5.75 -14.42,-2.44 z m -247.98,206.33 c -2.3,5.22 0.08,11.31 5.28,13.62 5.22,2.3 11.31,-0.06 13.62,-5.27 l 11.71,-26.35 c 2.31,-5.22 -0.05,-11.32 -5.28,-13.63 -5.2,-2.3 -11.31,0.06 -13.6,5.28 z m -341.95,-115.91 c -5.67,0.82 -9.61,6.07 -8.8,11.72 0.81,5.67 6.06,9.6 11.72,8.8 l 20.5,-2.93 c 5.66,-0.8 9.58,-6.05 8.79,-11.72 -0.81,-5.65 -6.05,-9.59 -11.72,-8.79 z m -385.6,-314.24 c -3.74,4.32 -3.26,10.86 1.05,14.59 4.31,3.74 10.84,3.27 14.58,-1.05 l 19.06,-21.96 c 3.74,-4.32 3.25,-10.85 -1.06,-14.6 -4.33,-3.73 -10.87,-3.26 -14.61,1.06 z m -100.79,175.04 c -1.23,1.58 -0.38,0.49 0.26,-0.79 v 0.45 z m 0.26,-2.93 c -5.74,0 -10.38,4.63 -10.38,10.37 0,5.72 4.64,10.38 10.38,10.38 12.12,0 12.23,-0.14 16.12,-5.18 0.11,-0.14 0.3,-0.41 3.13,-1.81 5.12,-2.55 7.18,-8.76 4.63,-13.87 -2.55,-5.1 -8.74,-7.18 -13.88,-4.62 -6.6,3.31 -8.79,5.79 -10,7.32 v -0.45 c 0.51,-1.02 0.89,-2.14 0,-2.14 z m 121.92,-81.5 c 4.25,3.83 10.81,3.49 14.63,-0.77 3.82,-4.25 3.48,-10.8 -0.77,-14.63 l -14.63,-13.18 c -4.27,-3.82 -10.81,-3.49 -14.65,0.78 -3.82,4.25 -3.48,10.79 0.79,14.63 z m 267.36,336.79 c -5.44,1.72 -8.44,7.54 -6.72,12.97 1.74,5.45 7.53,8.45 12.98,6.73 l 29.58,-9.44 c 5.46,-1.72 8.46,-7.52 6.74,-12.97 -1.74,-5.44 -7.53,-8.44 -12.99,-6.72 z m -103.74,-65.97 c -5.49,1.61 -8.64,7.37 -7.02,12.85 1.6,5.48 7.36,8.63 12.83,7.02 l 24.92,-7.33 c 5.47,-1.62 8.61,-7.36 7,-12.85 -1.61,-5.48 -7.36,-8.62 -12.85,-7.01 z m -152.29,-63.41 c -5.73,0 -10.38,4.65 -10.38,10.38 0,5.74 4.65,10.38 10.38,10.38 h 11.71 c 5.74,0 10.38,-4.64 10.38,-10.38 0,-5.73 -4.64,-10.38 -10.38,-10.38 z m 108.22,-140.44 c 0,5.74 4.67,10.38 10.38,10.38 5.72,0 10.36,-4.64 10.36,-10.38 v -43.92 c 0,-5.73 -4.64,-10.37 -10.36,-10.37 -5.71,0 -10.38,4.64 -10.38,10.37 z m -26.65,-194.3 c -3.8,4.27 -3.42,10.83 0.85,14.63 4.26,3.8 10.83,3.41 14.65,-0.85 l 23.41,-26.36 c 3.8,-4.28 3.42,-10.83 -0.85,-14.63 -4.27,-3.81 -10.83,-3.43 -14.63,0.85 z m 100.91,-55.4 c -4.48,3.54 -5.24,10.04 -1.7,14.52 3.52,4.47 10.02,5.23 14.51,1.7 l 27.82,-21.96 c 4.45,-3.55 5.22,-10.04 1.7,-14.53 -3.55,-4.47 -10.04,-5.23 -14.51,-1.69 z m 228.21,-32.33 c -5.36,2.03 -8.04,8.03 -6.01,13.38 2.04,5.35 8.01,8.03 13.37,6 l 30.76,-11.72 c 5.35,-2.04 8.03,-8.02 5.99,-13.37 -2.02,-5.35 -8.02,-8.05 -13.38,-6 z m 391.62,63.39 c -1.06,-5.62 -6.49,-9.3 -12.12,-8.23 -5.62,1.07 -9.29,6.5 -8.23,12.12 l 8.8,45.38 c 1.05,5.62 6.49,9.31 12.12,8.23 5.62,-1.07 9.29,-6.49 8.22,-12.12 z m 41.1,176.43 c 0.95,5.62 6.29,9.44 11.94,8.5 5.62,-0.93 9.43,-6.28 8.49,-11.91 l -4.38,-26.36 c -0.95,-5.63 -6.27,-9.45 -11.93,-8.5 -5.62,0.92 -9.44,6.26 -8.49,11.9 z m 46.82,128.61 c -0.8,5.66 3.12,10.91 8.79,11.71 5.66,0.81 10.91,-3.13 11.72,-8.79 l 2.93,-20.51 c 0.81,-5.65 -3.14,-10.9 -8.8,-11.71 -5.66,-0.8 -10.91,3.14 -11.7,8.8 z m -173.63,8.23 c -4.35,3.72 -4.86,10.26 -1.16,14.59 3.74,4.36 10.27,4.86 14.61,1.15 l 10.23,-8.79 c 4.36,-3.71 4.87,-10.25 1.15,-14.59 -3.71,-4.34 -10.24,-4.85 -14.59,-1.14 z m -95.55,66.21 c -4.17,3.93 -4.36,10.48 -0.43,14.64 3.91,4.17 10.45,4.37 14.62,0.45 l 23.43,-21.96 c 4.15,-3.92 4.35,-10.47 0.45,-14.64 -3.93,-4.16 -10.47,-4.35 -14.64,-0.43 z m -189.54,40.85 c -5.06,2.67 -7,8.93 -4.33,13.99 2.65,5.06 8.92,7 13.98,4.33 l 27.82,-14.63 c 5.06,-2.67 7,-8.93 4.34,-13.99 -2.68,-5.06 -8.93,-7 -13.99,-4.34 l -27.82,14.64"
         style="fill:#4ba6ce;fill-opacity:1;fill-rule:evenodd;stroke:none"
         id="path76" /><path
         d="m 3341.88,2347.45 c -53.17,61.22 -156.04,102.71 -274.21,102.71 -118.19,0 -221.05,-41.49 -274.22,-102.71 53.17,-61.22 156.03,-102.73 274.22,-102.73 118.17,0 221.04,41.51 274.21,102.73 z m -274.21,384.16 c 363.36,0 657.92,-186.43 657.92,-416.38 0,-229.96 -294.56,-416.37 -657.92,-416.37 -363.36,0 -657.93,186.41 -657.93,416.37 0,229.95 294.57,416.38 657.93,416.38"
         style="fill:#f1a50f;fill-opacity:1;fill-rule:evenodd;stroke:none"
         id="path78" /><path
         d="m 3103.62,2577.93 c -163.35,0 -295.77,-64.9 -295.77,-144.96 0,-80.06 132.42,-144.96 295.77,-144.96 163.34,0 295.76,64.9 295.76,144.96 0,80.06 -132.42,144.96 -295.76,144.96 z m -51.25,213.78 c 334,0 604.74,-153.39 604.74,-342.62 0,-189.24 -270.74,-342.63 -604.74,-342.63 -333.97,0 -604.71,153.39 -604.71,342.63 0,189.23 270.74,342.62 604.71,342.62"
         style="fill:#463d3b;fill-opacity:1;fill-rule:evenodd;stroke:none"
         id="path80" /><path
         d="m 2693.64,2539.79 c -0.85,5.66 3.04,10.95 8.71,11.8 5.65,0.85 10.94,-3.05 11.8,-8.71 l 5.86,-38.08 c 0.83,-5.67 -3.07,-10.95 -8.72,-11.8 -5.66,-0.85 -10.95,3.05 -11.78,8.72 z m 150.3,39.56 c -5.7,-0.51 -10.73,3.68 -11.25,9.36 -0.51,5.69 3.7,10.71 9.36,11.23 l 16.12,1.46 c 5.68,0.52 10.72,-3.67 11.23,-9.35 0.51,-5.69 -3.68,-10.72 -9.36,-11.23 z m 82.79,93.85 c -1.55,5.51 1.62,11.24 7.13,12.81 5.51,1.55 11.25,-1.63 12.81,-7.14 l 5.88,-20.5 c 1.54,-5.5 -1.65,-11.24 -7.14,-12.8 -5.51,-1.57 -11.25,1.62 -12.81,7.13 z m 253.03,-30.46 c -3.02,4.86 -1.55,11.25 3.33,14.27 4.84,3.01 11.25,1.54 14.26,-3.32 l 7.33,-11.71 c 3.02,-4.87 1.5,-11.24 -3.32,-14.27 -4.88,-3.03 -11.25,-1.54 -14.28,3.32 z m 184.65,12.69 c 3.18,4.78 9.61,6.06 14.39,2.89 4.77,-3.18 6.05,-9.62 2.89,-14.4 l -11.73,-17.57 c -3.18,-4.76 -9.62,-6.05 -14.38,-2.87 -4.77,3.17 -6.06,9.61 -2.88,14.38 z m 57.25,-93.53 c -4.81,3.07 -6.23,9.45 -3.15,14.27 3.06,4.81 9.46,6.22 14.27,3.16 l 16.1,-10.25 c 4.81,-3.07 6.23,-9.46 3.17,-14.27 -3.08,-4.82 -9.45,-6.23 -14.29,-3.16 z m 31.9,-99.65 c -4.04,4.04 -4.04,10.62 0,14.67 4.04,4.05 10.63,4.05 14.66,0 l 14.65,-14.64 c 4.06,-4.05 4.06,-10.63 0,-14.68 -4.05,-4.05 -10.62,-4.05 -14.67,0 z m -43.82,-101.59 c -1.14,5.62 2.51,11.09 8.13,12.21 5.63,1.12 11.08,-2.53 12.21,-8.15 l 2.93,-14.65 c 1.11,-5.61 -2.53,-11.07 -8.16,-12.19 -5.6,-1.12 -11.08,2.52 -12.19,8.15 z m -59.2,-96.71 c 4.49,3.54 11,2.75 14.54,-1.75 3.54,-4.49 2.75,-11 -1.74,-14.55 l -20.5,-16.1 c -4.49,-3.54 -11.02,-2.76 -14.55,1.75 -3.53,4.49 -2.76,11.01 1.75,14.55 z m -102.62,-14.76 c 3.64,4.42 10.14,5.04 14.55,1.42 4.41,-3.62 5.06,-10.15 1.42,-14.55 l -20.5,-24.89 c -3.62,-4.41 -10.14,-5.04 -14.55,-1.42 -4.42,3.63 -5.04,10.15 -1.42,14.55 z m -152.65,-36.17 c -1.76,5.42 1.16,11.26 6.58,13.06 5.42,1.79 11.27,-1.15 13.05,-6.56 l 5.86,-17.57 c 1.79,-5.42 -1.15,-11.27 -6.57,-13.06 -5.42,-1.8 -11.25,1.14 -13.07,6.57 z m -134.54,34.76 c 2.04,5.32 8.01,8 13.33,5.96 5.34,-2.05 8,-8 5.97,-13.34 l -7.32,-19.04 c -2.05,-5.32 -8.01,-7.99 -13.33,-5.96 -5.33,2.04 -8,8.01 -5.97,13.34 z m -108.14,33.16 c 4.98,2.8 11.28,1.03 14.07,-3.97 2.81,-4.98 1.03,-11.3 -3.95,-14.09 l -23.43,-13.19 c -5,-2.79 -11.31,-1.02 -14.1,3.97 -2.8,5 -1.02,11.32 3.96,14.11 z m -64.59,75.3 c 4.82,3.01 11.23,1.53 14.27,-3.33 2.99,-4.86 1.5,-11.25 -3.34,-14.26 l -17.81,-11.12 c -4.87,-3.01 -11.25,-1.52 -14.26,3.34 -3.02,4.85 -1.56,11.24 3.32,14.26 z m -78.51,12.04 c 3.89,4.19 10.44,4.42 14.63,0.52 4.19,-3.88 4.42,-10.44 0.53,-14.63 l -19.02,-20.49 c -3.89,-4.19 -10.46,-4.43 -14.65,-0.53 -4.17,3.9 -4.42,10.45 -0.53,14.63 z m -182.61,36.98 c -3.17,4.76 -1.89,11.21 2.87,14.38 4.77,3.18 11.21,1.9 14.38,-2.87 l 11.72,-17.58 c 3.19,-4.76 1.88,-11.21 -2.89,-14.38 -4.76,-3.17 -11.19,-1.9 -14.38,2.87 z m 22.82,106.75 c -5.69,-0.57 -10.74,3.59 -11.31,9.27 -0.57,5.69 3.59,10.75 9.29,11.3 l 29.27,2.93 c 5.69,0.57 10.75,-3.58 11.31,-9.27 0.57,-5.69 -3.58,-10.76 -9.29,-11.31 z m 70.15,133.19 c -5.7,0.31 -10.07,5.2 -9.75,10.9 0.32,5.71 5.18,10.09 10.89,9.77 l 26.36,-1.46 c 5.71,-0.31 10.08,-5.2 9.77,-10.9 -0.3,-5.71 -5.2,-10.08 -10.9,-9.77 z m 172.22,48.64 c -5.51,1.44 -8.84,7.08 -7.4,12.61 1.43,5.53 7.06,8.85 12.61,7.42 l 17.93,-4.71 c 5.53,-1.41 8.85,-7.06 7.42,-12.59 -1.42,-5.54 -7.08,-8.85 -12.59,-7.42 z m -54.59,-57.91 c -0.3,5.72 4.06,10.6 9.79,10.9 5.69,0.31 10.56,-4.05 10.88,-9.76 l 1.46,-26.35 c 0.32,-5.72 -4.04,-10.6 -9.77,-10.91 -5.69,-0.31 -10.58,4.06 -10.88,9.76 z m 282.56,103.22 c -3.97,4.12 -3.85,10.67 0.26,14.63 4.12,3.97 10.69,3.83 14.65,-0.28 l 14.5,-15.04 c 3.96,-4.11 3.85,-10.67 -0.26,-14.64 -4.14,-3.95 -10.68,-3.83 -14.65,0.3 z m 120.31,10.32 c -3.11,4.79 -1.76,11.2 3.04,14.31 4.77,3.11 11.19,1.75 14.29,-3.03 l 18.44,-28.26 c 3.11,-4.8 1.75,-11.22 -3.04,-14.33 -4.8,-3.1 -11.2,-1.74 -14.31,3.05 z m 94.38,-17.57 c -2.33,5.23 0.06,11.35 5.28,13.65 5.24,2.32 11.37,-0.07 13.66,-5.3 l 9.45,-21.34 c 2.31,-5.24 -0.06,-11.36 -5.29,-13.67 -5.25,-2.3 -11.37,0.08 -13.67,5.32 z m 176.29,-63.08 c -3.99,4.1 -3.89,10.65 0.2,14.63 4.1,3.99 10.65,3.9 14.63,-0.19 l 13.65,-14.1 c 3.99,-4.09 3.89,-10.64 -0.21,-14.62 -4.09,-4 -10.65,-3.9 -14.63,0.19 z m 83.18,-57.64 c -2.67,5.06 -0.72,11.31 4.34,13.99 5.05,2.66 11.32,0.71 13.99,-4.35 l 13.17,-24.89 c 2.66,-5.05 0.72,-11.32 -4.34,-13.97 -5.06,-2.67 -11.33,-0.73 -13.99,4.32 z m 63.53,-158.13 c 1.4,5.56 7.03,8.94 12.57,7.55 5.55,-1.39 8.93,-7.01 7.53,-12.57 l -7.32,-29.28 c -1.38,-5.55 -7,-8.93 -12.55,-7.54 -5.55,1.39 -8.93,7.02 -7.55,12.56 z m -49.22,-114.59 c 3.6,4.44 10.13,5.11 14.55,1.51 4.43,-3.61 5.11,-10.12 1.51,-14.56 l -24.9,-30.75 c -3.61,-4.42 -10.12,-5.09 -14.55,-1.48 -4.44,3.6 -5.1,10.12 -1.51,14.54 z m -900.21,94.94 c -3.81,4.28 -3.43,10.83 0.85,14.64 4.27,3.8 10.82,3.42 14.63,-0.86 l 11.71,-13.17 c 3.81,-4.28 3.43,-10.82 -0.83,-14.64 -4.29,-3.8 -10.84,-3.42 -14.65,0.86 l -11.71,13.17"
         style="fill:#f1427d;fill-opacity:1;fill-rule:evenodd;stroke:none"
         id="path82" /><path
         d="m 3191.39,2184.37 c -4.68,3.29 -5.81,9.75 -2.53,14.43 3.3,4.68 9.77,5.8 14.44,2.51 l 24.89,-17.57 c 4.68,-3.29 5.81,-9.75 2.51,-14.43 -3.28,-4.68 -9.75,-5.8 -14.43,-2.51 z m 366.31,181.4 c -4.78,3.15 -6.09,9.58 -2.93,14.34 3.15,4.78 9.59,6.09 14.34,2.93 l 8.8,-5.86 c 4.76,-3.15 6.05,-9.58 2.9,-14.34 -3.14,-4.77 -9.57,-6.09 -14.34,-2.92 z m 14.34,151.02 c -4.65,3.31 -5.74,9.78 -2.44,14.43 3.33,4.66 9.78,5.75 14.44,2.43 l 20.5,-14.63 c 4.66,-3.32 5.74,-9.79 2.43,-14.44 -3.32,-4.65 -9.77,-5.75 -14.43,-2.43 z m -247.96,206.32 c -2.3,5.21 0.03,11.32 5.27,13.61 5.2,2.31 11.3,-0.05 13.6,-5.26 l 11.73,-26.36 c 2.3,-5.21 -0.06,-11.31 -5.28,-13.62 -5.2,-2.3 -11.31,0.06 -13.62,5.27 z m -341.98,-115.9 c -5.66,0.8 -9.59,6.06 -8.79,11.71 0.81,5.67 6.04,9.61 11.72,8.81 l 20.5,-2.94 c 5.66,-0.8 9.61,-6.05 8.8,-11.71 -0.82,-5.66 -6.07,-9.6 -11.73,-8.8 z m -385.6,-314.25 c -3.73,4.32 -3.26,10.85 1.07,14.6 4.31,3.72 10.85,3.26 14.59,-1.06 l 19.02,-21.96 c 3.74,-4.32 3.28,-10.85 -1.03,-14.59 -4.33,-3.74 -10.86,-3.28 -14.59,1.05 z m -100.77,175.03 c -1.24,1.59 -0.39,0.51 0.25,-0.78 v 0.45 z m 0.25,-2.93 c -5.72,0 -10.38,4.65 -10.38,10.38 0,5.73 4.66,10.38 10.38,10.38 12.14,0 12.21,-0.14 16.14,-5.18 0.1,-0.14 0.3,-0.4 3.13,-1.82 5.1,-2.55 7.17,-8.76 4.6,-13.86 -2.53,-5.1 -8.75,-7.17 -13.84,-4.61 -6.62,3.3 -8.82,5.78 -10.03,7.31 v -0.45 c 0.51,-1 0.89,-2.15 0,-2.15 z m 121.91,-81.49 c 4.27,3.83 10.82,3.49 14.65,-0.76 3.82,-4.26 3.48,-10.81 -0.77,-14.64 l -14.65,-13.18 c -4.25,-3.83 -10.82,-3.48 -14.63,0.78 -3.83,4.24 -3.5,10.79 0.75,14.63 z m 267.38,336.8 c -5.44,1.71 -8.45,7.53 -6.73,12.95 1.71,5.45 7.52,8.46 12.96,6.74 l 29.6,-9.44 c 5.43,-1.72 8.45,-7.52 6.74,-12.97 -1.72,-5.43 -7.54,-8.45 -12.97,-6.73 z M 2781.5,2654.4 c -5.47,1.6 -8.61,7.35 -7,12.84 1.6,5.48 7.38,8.62 12.85,7.01 l 24.88,-7.31 c 5.51,-1.61 8.64,-7.37 7.02,-12.85 -1.6,-5.49 -7.37,-8.64 -12.83,-7.02 z m -152.28,-63.42 c -5.74,0 -10.38,4.65 -10.38,10.37 0,5.73 4.64,10.38 10.38,10.38 h 11.72 c 5.72,0 10.36,-4.65 10.36,-10.38 0,-5.72 -4.64,-10.37 -10.36,-10.37 z m 108.23,-140.44 c 0,5.73 4.64,10.37 10.38,10.37 5.73,0 10.38,-4.64 10.38,-10.37 v -43.91 c 0,-5.74 -4.65,-10.39 -10.38,-10.39 -5.74,0 -10.38,4.65 -10.38,10.39 z m -26.66,-194.31 c -3.81,4.27 -3.41,10.84 0.87,14.63 4.27,3.81 10.82,3.43 14.61,-0.85 l 23.45,-26.35 c 3.81,-4.28 3.41,-10.82 -0.87,-14.63 -4.27,-3.8 -10.82,-3.43 -14.61,0.85 z m 100.91,-55.39 c -4.47,3.54 -5.24,10.03 -1.7,14.52 3.54,4.47 10.04,5.22 14.52,1.7 l 27.81,-21.97 c 4.48,-3.53 5.24,-10.03 1.7,-14.5 -3.52,-4.48 -10.02,-5.24 -14.51,-1.71 z m 228.21,-32.32 c -5.35,2.02 -8.03,8.02 -5.99,13.37 2.02,5.35 8.01,8.03 13.37,6 l 30.74,-11.72 c 5.36,-2.03 8.03,-8.02 5.99,-13.37 -2.03,-5.35 -8.01,-8.04 -13.36,-6.01 z m 391.62,63.38 c -1.05,-5.63 -6.49,-9.31 -12.12,-8.23 -5.6,1.07 -9.3,6.49 -8.23,12.12 l 8.8,45.39 c 1.07,5.61 6.49,9.29 12.12,8.23 5.62,-1.08 9.31,-6.51 8.23,-12.13 z m 41.12,176.42 c 0.93,5.65 6.28,9.45 11.92,8.51 5.64,-0.94 9.46,-6.27 8.52,-11.91 l -4.41,-26.36 c -0.94,-5.64 -6.26,-9.45 -11.9,-8.51 -5.65,0.94 -9.46,6.27 -8.52,11.92 z m 46.82,128.62 c -0.81,5.66 3.14,10.91 8.8,11.71 5.66,0.81 10.91,-3.14 11.7,-8.79 l 2.93,-20.51 c 0.81,-5.64 -3.11,-10.91 -8.78,-11.71 -5.68,-0.8 -10.91,3.14 -11.73,8.8 z m -173.65,8.23 c -4.34,3.72 -4.85,10.25 -1.13,14.6 3.7,4.35 10.25,4.84 14.59,1.12 l 10.25,-8.77 c 4.34,-3.72 4.85,-10.25 1.13,-14.59 -3.72,-4.34 -10.25,-4.85 -14.59,-1.14 z m -95.55,66.23 c -4.15,3.91 -4.35,10.45 -0.45,14.63 3.93,4.16 10.5,4.36 14.65,0.44 l 23.43,-21.96 c 4.17,-3.92 4.36,-10.47 0.43,-14.64 -3.91,-4.16 -10.46,-4.36 -14.61,-0.44 z m -189.54,40.83 c -5.06,2.67 -6.98,8.93 -4.33,13.99 2.67,5.04 8.94,7 13.98,4.33 l 27.82,-14.64 c 5.06,-2.66 7.01,-8.92 4.35,-13.98 -2.67,-5.06 -8.94,-7 -14,-4.35 l -27.82,14.65"
         style="fill:#4ba6ce;fill-opacity:1;fill-rule:evenodd;stroke:none"
         id="path84" /><path
         d="m 1559.46,2291.41 c -53.18,61.21 -156.03,102.71 -274.22,102.71 -118.19,0 -221.03,-41.5 -274.2,-102.71 53.17,-61.22 156.01,-102.71 274.2,-102.71 118.19,0 221.04,41.49 274.22,102.71 z m -274.22,384.16 c 363.37,0 657.93,-186.42 657.93,-416.38 0,-229.95 -294.56,-416.37 -657.93,-416.37 -363.377,0 -657.935,186.42 -657.935,416.37 0,229.96 294.558,416.38 657.935,416.38"
         style="fill:#f1a50f;fill-opacity:1;fill-rule:evenodd;stroke:none"
         id="path86" /><path
         d="m 1321.2,2521.9 c -163.36,0 -295.76,-64.9 -295.76,-144.96 0,-80.05 132.4,-144.95 295.76,-144.95 163.37,0 295.77,64.9 295.77,144.95 0,80.06 -132.4,144.96 -295.77,144.96 z m -51.24,213.78 c 333.98,0 604.72,-153.41 604.72,-342.63 0,-189.24 -270.74,-342.63 -604.72,-342.63 -333.976,0 -604.718,153.39 -604.718,342.63 0,189.22 270.742,342.63 604.718,342.63"
         style="fill:#ed0e66;fill-opacity:1;fill-rule:evenodd;stroke:none"
         id="path88" /><path
         d="m 911.223,2483.74 c -0.871,5.68 3.054,10.95 8.718,11.8 5.664,0.85 10.95,-3.05 11.778,-8.71 l 5.847,-38.07 c 0.872,-5.66 -3.035,-10.94 -8.687,-11.79 -5.664,-0.85 -10.957,3.05 -11.801,8.72 z m 150.277,39.58 c -5.68,-0.52 -10.72,3.68 -11.23,9.36 -0.5,5.68 3.69,10.71 9.37,11.23 l 16.09,1.47 c 5.71,0.5 10.73,-3.69 11.25,-9.37 0.5,-5.69 -3.69,-10.71 -9.35,-11.23 z m 82.81,93.84 c -1.57,5.51 1.64,11.24 7.14,12.82 5.5,1.56 11.23,-1.64 12.81,-7.13 l 5.85,-20.51 c 1.57,-5.5 -1.62,-11.24 -7.13,-12.8 -5.51,-1.58 -11.25,1.62 -12.8,7.12 z m 253.01,-30.45 c -3.01,4.86 -1.5,11.24 3.33,14.27 4.87,3.02 11.25,1.52 14.27,-3.32 l 7.33,-11.72 c 3.01,-4.85 1.54,-11.25 -3.33,-14.27 -4.85,-3.02 -11.24,-1.53 -14.27,3.32 z M 1582,2599.4 c 3.18,4.76 9.61,6.06 14.39,2.88 4.75,-3.18 6.03,-9.63 2.86,-14.39 l -11.7,-17.57 c -3.17,-4.77 -9.63,-6.06 -14.39,-2.87 -4.79,3.17 -6.07,9.62 -2.88,14.38 z m 57.25,-93.55 c -4.82,3.08 -6.23,9.47 -3.16,14.28 3.06,4.82 9.45,6.22 14.27,3.16 l 16.1,-10.24 c 4.82,-3.07 6.24,-9.45 3.16,-14.28 -3.06,-4.8 -9.45,-6.22 -14.27,-3.16 z m 31.87,-99.64 c -4.03,4.05 -4.03,10.62 0,14.67 4.09,4.06 10.66,4.06 14.69,0 l 14.65,-14.64 c 4.04,-4.05 4.04,-10.62 0,-14.67 -4.04,-4.06 -10.63,-4.06 -14.69,0 z m -43.83,-101.58 c -1.11,5.62 2.54,11.09 8.17,12.21 5.61,1.11 11.07,-2.53 12.19,-8.14 l 2.95,-14.65 c 1.09,-5.62 -2.53,-11.1 -8.16,-12.21 -5.62,-1.12 -11.1,2.53 -12.2,8.15 z m -59.18,-96.72 c 4.49,3.55 11.02,2.77 14.56,-1.73 3.52,-4.5 2.75,-11.02 -1.74,-14.56 l -20.5,-16.1 c -4.51,-3.54 -11.03,-2.76 -14.56,1.75 -3.55,4.49 -2.75,11 1.74,14.55 z m -102.6,-14.75 c 3.62,4.4 10.13,5.04 14.53,1.41 4.41,-3.62 5.06,-10.13 1.43,-14.55 l -20.49,-24.89 c -3.63,-4.4 -10.16,-5.04 -14.55,-1.41 -4.41,3.62 -5.04,10.13 -1.42,14.55 z M 1312.86,2157 c -1.79,5.41 1.15,11.26 6.57,13.04 5.42,1.79 11.27,-1.15 13.04,-6.56 l 5.86,-17.58 c 1.81,-5.41 -1.13,-11.26 -6.55,-13.04 -5.42,-1.79 -11.27,1.15 -13.07,6.56 z m -134.56,34.74 c 2.04,5.33 8.03,8 13.37,5.97 5.32,-2.04 7.98,-8.02 5.95,-13.34 l -7.33,-19.03 c -2.04,-5.34 -8.02,-8.01 -13.35,-5.97 -5.32,2.04 -7.99,8.02 -5.96,13.34 z m -108.15,33.18 c 4.99,2.79 11.31,1.01 14.1,-3.98 2.81,-4.99 1.03,-11.31 -3.99,-14.11 l -23.39,-13.17 c -5,-2.81 -11.33,-1.02 -14.13,3.97 -2.79,4.99 -1.01,11.31 3.99,14.1 z m -64.59,75.28 c 4.85,3.03 11.25,1.53 14.27,-3.31 3.02,-4.86 1.53,-11.25 -3.33,-14.28 l -17.809,-11.1 c -4.851,-3.02 -11.25,-1.53 -14.265,3.32 -3.031,4.86 -1.535,11.25 3.316,14.27 z m -78.482,12.05 c 3.891,4.18 10.442,4.41 14.633,0.53 4.168,-3.9 4.41,-10.45 0.523,-14.64 l -19.043,-20.5 c -3.882,-4.18 -10.437,-4.41 -14.628,-0.53 -4.168,3.9 -4.415,10.45 -0.504,14.64 z m -182.637,36.97 c -3.164,4.77 -1.882,11.21 2.895,14.4 4.773,3.17 11.211,1.88 14.402,-2.88 l 11.7,-17.57 c 3.171,-4.78 1.882,-11.22 -2.872,-14.4 -4.773,-3.18 -11.211,-1.88 -14.406,2.88 z m 22.844,106.74 c -5.703,-0.56 -10.762,3.6 -11.328,9.28 -0.547,5.69 3.621,10.75 9.285,11.32 l 29.301,2.92 c 5.684,0.55 10.762,-3.6 11.309,-9.28 0.543,-5.68 -3.618,-10.74 -9.289,-11.3 z m 70.156,133.2 c -5.703,0.33 -10.078,5.2 -9.753,10.91 0.3,5.72 5.183,10.08 10.886,9.77 l 26.367,-1.47 c 5.704,-0.3 10.079,-5.19 9.778,-10.89 -0.332,-5.71 -5.207,-10.09 -10.91,-9.78 z m 172.219,48.65 c -5.53,1.43 -8.86,7.07 -7.42,12.6 1.43,5.53 7.08,8.85 12.6,7.42 l 17.95,-4.69 c 5.54,-1.44 8.86,-7.08 7.42,-12.61 -1.43,-5.53 -7.08,-8.86 -12.6,-7.42 z m -54.609,-57.9 c -0.305,5.7 4.082,10.58 9.773,10.9 5.703,0.31 10.614,-4.07 10.918,-9.77 l 1.465,-26.36 c 0.305,-5.71 -4.07,-10.59 -9.773,-10.91 -5.704,-0.3 -10.61,4.07 -10.911,9.78 z m 282.559,103.2 c -3.97,4.12 -3.83,10.67 0.28,14.63 4.11,3.96 10.66,3.85 14.63,-0.28 l 14.51,-15.03 c 3.97,-4.12 3.84,-10.67 -0.28,-14.63 -4.11,-3.97 -10.67,-3.85 -14.65,0.28 z m 120.31,10.33 c -3.1,4.79 -1.74,11.2 3.06,14.31 4.77,3.1 11.17,1.74 14.3,-3.05 l 18.42,-28.26 c 3.1,-4.79 1.74,-11.2 -3.06,-14.31 -4.77,-3.11 -11.17,-1.74 -14.28,3.04 z m 94.37,-17.59 c -2.3,5.24 0.07,11.37 5.31,13.67 5.22,2.3 11.34,-0.07 13.66,-5.31 l 9.44,-21.33 c 2.32,-5.25 -0.06,-11.36 -5.31,-13.67 -5.24,-2.3 -11.36,0.08 -13.66,5.32 z m 176.29,-63.06 c -3.96,4.09 -3.88,10.65 0.23,14.64 4.08,3.97 10.64,3.89 14.63,-0.22 l 13.64,-14.08 c 3.96,-4.09 3.9,-10.64 -0.2,-14.63 -4.1,-3.98 -10.65,-3.9 -14.63,0.21 z m 83.21,-57.65 c -2.69,5.07 -0.73,11.33 4.33,13.99 5.06,2.66 11.33,0.72 13.97,-4.33 l 13.18,-24.9 c 2.68,-5.06 0.73,-11.32 -4.34,-13.99 -5.04,-2.65 -11.31,-0.71 -13.97,4.35 z m 63.52,-158.11 c 1.39,5.54 7.02,8.92 12.58,7.54 5.55,-1.39 8.91,-7.02 7.53,-12.57 l -7.32,-29.28 c -1.38,-5.56 -7.01,-8.94 -12.55,-7.55 -5.56,1.39 -8.96,7.02 -7.55,12.57 z m -49.22,-114.59 c 3.61,4.42 10.12,5.1 14.55,1.5 4.44,-3.6 5.12,-10.13 1.5,-14.56 l -24.88,-30.74 c -3.61,-4.44 -10.12,-5.11 -14.55,-1.51 -4.44,3.61 -5.12,10.12 -1.5,14.55 z m -900.223,94.93 c -3.804,4.28 -3.418,10.83 0.871,14.64 4.27,3.8 10.84,3.41 14.61,-0.85 l 11.738,-13.19 c 3.801,-4.27 3.398,-10.83 -0.867,-14.63 -4.258,-3.8 -10.832,-3.42 -14.629,0.85 l -11.723,13.18"
         style="fill:#fcd7e7;fill-opacity:1;fill-rule:evenodd;stroke:none"
         id="path90" /><path
         d="m 1408.96,2128.33 c -4.68,3.3 -5.8,9.76 -2.5,14.44 3.29,4.68 9.74,5.8 14.43,2.5 l 24.87,-17.56 c 4.68,-3.29 5.81,-9.76 2.53,-14.43 -3.28,-4.68 -9.75,-5.8 -14.44,-2.51 z m 366.3,181.41 c -4.77,3.16 -6.06,9.58 -2.93,14.35 3.18,4.77 9.59,6.07 14.35,2.91 l 8.8,-5.85 c 4.77,-3.17 6.07,-9.58 2.92,-14.35 -3.16,-4.77 -9.57,-6.07 -14.35,-2.92 z m 14.36,151.02 c -4.66,3.31 -5.73,9.77 -2.43,14.43 3.3,4.65 9.77,5.73 14.44,2.43 l 20.5,-14.65 c 4.64,-3.31 5.73,-9.77 2.41,-14.42 -3.3,-4.66 -9.77,-5.74 -14.41,-2.44 z m -247.97,206.31 c -2.3,5.22 0.05,11.31 5.28,13.62 5.21,2.31 11.3,-0.05 13.61,-5.26 l 11.72,-26.36 c 2.3,-5.22 -0.07,-11.31 -5.29,-13.63 -5.2,-2.29 -11.3,0.06 -13.6,5.28 z m -341.96,-115.89 c -5.67,0.8 -9.61,6.05 -8.8,11.71 0.82,5.67 6.06,9.6 11.73,8.79 l 20.5,-2.93 c 5.66,-0.8 9.59,-6.04 8.78,-11.7 -0.81,-5.67 -6.05,-9.6 -11.71,-8.8 z M 814.094,2236.93 c -3.735,4.31 -3.266,10.85 1.051,14.59 4.308,3.74 10.839,3.26 14.589,-1.06 l 19.036,-21.96 c 3.73,-4.33 3.261,-10.85 -1.043,-14.59 -4.336,-3.74 -10.872,-3.26 -14.614,1.05 z m -100.793,175.04 c -1.231,1.58 -0.379,0.49 0.262,-0.78 v 0.45 z m 0.262,-2.94 c -5.731,0 -10.379,4.65 -10.379,10.37 0,5.73 4.648,10.38 10.379,10.38 12.121,0 12.238,-0.13 16.125,-5.17 0.109,-0.15 0.3,-0.41 3.132,-1.82 5.11,-2.56 7.168,-8.76 4.621,-13.86 -2.546,-5.11 -8.757,-7.18 -13.878,-4.63 -6.598,3.3 -8.79,5.79 -10,7.34 v -0.45 c 0.492,-1.03 0.89,-2.16 0,-2.16 z m 121.917,-81.51 c 4.247,3.84 10.821,3.5 14.625,-0.76 3.833,-4.25 3.5,-10.79 -0.75,-14.63 l -14.648,-13.17 c -4.269,-3.83 -10.801,-3.49 -14.648,0.76 -3.821,4.26 -3.477,10.81 0.793,14.63 z m 267.36,336.81 c -5.44,1.72 -8.46,7.52 -6.72,12.97 1.74,5.44 7.53,8.45 12.97,6.73 l 29.59,-9.44 c 5.44,-1.71 8.46,-7.53 6.74,-12.96 -1.73,-5.44 -7.55,-8.46 -12.98,-6.73 z m -103.738,-65.98 c -5.489,1.62 -8.641,7.37 -7.024,12.85 1.633,5.49 7.363,8.63 12.842,7.01 l 24.91,-7.32 c 5.47,-1.61 8.61,-7.35 7.01,-12.85 -1.61,-5.47 -7.37,-8.61 -12.86,-7 z m -152.293,-63.4 c -5.723,0 -10.364,4.64 -10.364,10.38 0,5.73 4.641,10.38 10.364,10.38 h 11.714 c 5.723,0 10.383,-4.65 10.383,-10.38 0,-5.74 -4.66,-10.38 -10.383,-10.38 z m 108.218,-140.43 c 0,5.73 4.653,10.37 10.364,10.37 5.742,0 10.379,-4.64 10.379,-10.37 v -43.94 c 0,-5.72 -4.637,-10.38 -10.379,-10.38 -5.711,0 -10.364,4.66 -10.364,10.38 z M 928.379,2200.2 c -3.789,4.28 -3.418,10.83 0.851,14.63 4.266,3.81 10.836,3.43 14.649,-0.85 l 23.406,-26.36 c 3.809,-4.27 3.43,-10.83 -0.847,-14.62 -4.27,-3.82 -10.825,-3.43 -14.629,0.84 z m 100.911,-55.4 c -4.48,3.54 -5.23,10.04 -1.7,14.51 3.52,4.48 10.02,5.25 14.51,1.7 l 27.82,-21.94 c 4.46,-3.55 5.24,-10.05 1.7,-14.52 -3.54,-4.48 -10.04,-5.24 -14.51,-1.7 z m 228.21,-32.32 c -5.36,2.04 -8.04,8.02 -6,13.37 2.04,5.36 8.02,8.04 13.36,6 l 30.77,-11.71 c 5.33,-2.04 8.02,-8.03 5.98,-13.38 -2.02,-5.34 -8.02,-8.03 -13.38,-5.99 z m 391.62,63.38 c -1.05,-5.61 -6.49,-9.3 -12.12,-8.23 -5.62,1.08 -9.3,6.51 -8.23,12.12 l 8.8,45.39 c 1.05,5.63 6.49,9.31 12.12,8.23 5.62,-1.07 9.28,-6.5 8.23,-12.12 z m 41.1,176.42 c 0.95,5.64 6.27,9.46 11.94,8.53 5.62,-0.95 9.43,-6.29 8.49,-11.93 l -4.38,-26.36 c -0.94,-5.64 -6.28,-9.44 -11.92,-8.5 -5.63,0.94 -9.45,6.27 -8.5,11.9 z m 46.82,128.62 c -0.79,5.67 3.14,10.91 8.79,11.72 5.66,0.81 10.92,-3.13 11.73,-8.8 l 2.92,-20.5 c 0.81,-5.66 -3.14,-10.9 -8.79,-11.7 -5.66,-0.81 -10.92,3.12 -11.71,8.78 z m -173.63,8.25 c -4.36,3.71 -4.86,10.24 -1.15,14.59 3.72,4.34 10.27,4.85 14.61,1.13 l 10.23,-8.79 c 4.34,-3.71 4.86,-10.24 1.15,-14.59 -3.72,-4.34 -10.25,-4.84 -14.59,-1.13 z m -95.55,66.21 c -4.17,3.91 -4.35,10.46 -0.43,14.63 3.91,4.16 10.46,4.37 14.61,0.44 l 23.44,-21.96 c 4.16,-3.91 4.36,-10.47 0.46,-14.63 -3.93,-4.16 -10.5,-4.36 -14.65,-0.45 z m -189.54,40.84 c -5.06,2.66 -7,8.92 -4.34,13.98 2.66,5.06 8.93,7 13.99,4.35 l 27.82,-14.65 c 5.06,-2.67 7,-8.93 4.34,-13.99 -2.68,-5.06 -8.93,-7 -13.99,-4.33 l -27.82,14.64"
         style="fill:#4ba6ce;fill-opacity:1;fill-rule:evenodd;stroke:none"
         id="path92" /><path
         d="m 2462.22,1811.11 c -53.16,61.21 -156.03,102.72 -274.2,102.72 -118.18,0 -221.05,-41.51 -274.22,-102.72 53.17,-61.21 156.04,-102.72 274.22,-102.72 118.17,0 221.04,41.51 274.2,102.72 z m -274.2,384.16 c 363.36,0 657.92,-186.41 657.92,-416.36 0,-229.95 -294.56,-416.38 -657.92,-416.38 -363.36,0 -657.92,186.43 -657.92,416.38 0,229.95 294.56,416.36 657.92,416.36"
         style="fill:#f1a50f;fill-opacity:1;fill-rule:evenodd;stroke:none"
         id="path94" /><path
         d="m 2223.97,2041.62 c -163.34,0 -295.77,-64.91 -295.77,-144.97 0,-80.04 132.43,-144.96 295.77,-144.96 163.34,0 295.78,64.92 295.78,144.96 0,80.06 -132.44,144.97 -295.78,144.97 z m -51.25,213.77 c 334,0 604.74,-153.4 604.74,-342.64 0,-189.22 -270.74,-342.62 -604.74,-342.62 -333.96,0 -604.72,153.4 -604.72,342.62 0,189.24 270.76,342.64 604.72,342.64"
         style="fill:#769a2a;fill-opacity:1;fill-rule:evenodd;stroke:none"
         id="path96" /><path
         d="m 1813.97,2003.46 c -0.83,5.67 3.06,10.94 8.73,11.79 5.66,0.85 10.94,-3.05 11.81,-8.71 l 5.85,-38.07 c 0.85,-5.66 -3.06,-10.95 -8.72,-11.78 -5.66,-0.87 -10.95,3.04 -11.8,8.71 z m 150.33,39.57 c -5.71,-0.52 -10.73,3.67 -11.25,9.36 -0.52,5.68 3.69,10.71 9.35,11.23 l 16.13,1.46 c 5.68,0.51 10.7,-3.68 11.21,-9.36 0.52,-5.68 -3.67,-10.73 -9.37,-11.23 z m 82.78,93.84 c -1.55,5.52 1.62,11.24 7.13,12.81 5.52,1.56 11.25,-1.62 12.82,-7.14 l 5.85,-20.49 c 1.56,-5.5 -1.62,-11.24 -7.14,-12.81 -5.49,-1.57 -11.23,1.62 -12.81,7.13 z m 253.04,-30.45 c -3.02,4.85 -1.56,11.25 3.32,14.27 4.85,3.02 11.25,1.53 14.27,-3.32 l 7.32,-11.72 c 3.02,-4.85 1.51,-11.24 -3.32,-14.27 -4.87,-3.03 -11.25,-1.53 -14.27,3.32 z m 184.63,12.7 c 3.19,4.76 9.63,6.04 14.4,2.87 4.78,-3.18 6.06,-9.62 2.89,-14.39 l -11.72,-17.58 c -3.19,-4.76 -9.63,-6.04 -14.4,-2.87 -4.76,3.18 -6.05,9.62 -2.87,14.39 z m 57.26,-93.55 c -4.79,3.07 -6.22,9.45 -3.16,14.27 3.07,4.81 9.47,6.23 14.27,3.16 l 16.11,-10.25 c 4.79,-3.07 6.23,-9.44 3.17,-14.26 -3.07,-4.82 -9.47,-6.23 -14.27,-3.17 z m 31.91,-99.65 c -4.07,4.05 -4.07,10.62 0,14.67 4.03,4.06 10.6,4.06 14.68,0 l 14.62,-14.63 c 4.07,-4.05 4.07,-10.64 0,-14.68 -4.05,-4.06 -10.62,-4.06 -14.66,0 z m -43.83,-101.58 c -1.13,5.63 2.53,11.08 8.13,12.2 5.63,1.13 11.08,-2.53 12.21,-8.14 l 2.91,-14.65 c 1.13,-5.62 -2.53,-11.08 -8.13,-12.21 -5.63,-1.12 -11.08,2.55 -12.21,8.15 z m -59.19,-96.71 c 4.49,3.53 11,2.76 14.53,-1.74 3.54,-4.51 2.75,-11.02 -1.74,-14.55 l -20.5,-16.1 c -4.49,-3.55 -11.02,-2.77 -14.55,1.74 -3.53,4.49 -2.75,11 1.76,14.55 z m -102.63,-14.76 c 3.62,4.41 10.14,5.03 14.55,1.41 4.42,-3.62 5.04,-10.13 1.42,-14.55 l -20.5,-24.89 c -3.62,-4.41 -10.14,-5.04 -14.55,-1.4 -4.41,3.61 -5.04,10.13 -1.42,14.53 z m -152.64,-36.17 c -1.79,5.42 1.16,11.27 6.57,13.06 5.42,1.78 11.25,-1.14 13.06,-6.58 l 5.85,-17.56 c 1.78,-5.41 -1.15,-11.27 -6.57,-13.06 -5.41,-1.79 -11.25,1.16 -13.06,6.57 z m -134.54,34.75 c 2.04,5.32 8,8.01 13.32,5.97 5.33,-2.04 8.01,-8.01 5.97,-13.35 l -7.32,-19.03 c -2.04,-5.34 -8,-7.99 -13.32,-5.96 -5.36,2.04 -8.01,8 -5.97,13.35 z m -108.17,33.18 c 5,2.8 11.31,1 14.1,-3.98 2.79,-4.98 1.02,-11.31 -3.96,-14.1 l -23.43,-13.18 c -5,-2.81 -11.31,-1.01 -14.1,3.97 -2.82,4.98 -1.02,11.31 3.96,14.1 z m -64.59,75.28 c 4.85,3.01 11.25,1.53 14.27,-3.32 3.03,-4.86 1.53,-11.25 -3.32,-14.27 l -17.82,-11.1 c -4.85,-3.02 -11.24,-1.53 -14.25,3.32 -3.02,4.85 -1.55,11.25 3.32,14.27 z m -78.49,12.04 c 3.89,4.19 10.44,4.43 14.63,0.53 4.19,-3.89 4.43,-10.44 0.53,-14.63 l -19.02,-20.5 c -3.91,-4.19 -10.46,-4.42 -14.65,-0.53 -4.19,3.89 -4.42,10.46 -0.53,14.63 z m -182.6,36.97 c -3.2,4.78 -1.9,11.22 2.86,14.39 4.77,3.19 11.21,1.9 14.38,-2.88 l 11.72,-17.54 c 3.19,-4.78 1.92,-11.22 -2.88,-14.41 -4.76,-3.16 -11.21,-1.88 -14.38,2.89 z m 22.81,106.75 c -5.68,-0.56 -10.73,3.6 -11.3,9.29 -0.57,5.68 3.58,10.74 9.29,11.3 l 29.26,2.93 c 5.69,0.56 10.75,-3.6 11.31,-9.27 0.57,-5.7 -3.58,-10.76 -9.28,-11.31 z m 70.16,133.21 c -5.7,0.3 -10.08,5.2 -9.76,10.9 0.32,5.71 5.19,10.08 10.89,9.77 l 26.37,-1.46 c 5.72,-0.31 10.08,-5.2 9.76,-10.91 -0.3,-5.71 -5.19,-10.09 -10.89,-9.77 z m 172.21,48.64 c -5.51,1.43 -8.83,7.07 -7.39,12.6 1.43,5.53 7.05,8.85 12.59,7.42 l 17.95,-4.69 c 5.52,-1.44 8.84,-7.08 7.41,-12.61 -1.43,-5.53 -7.07,-8.85 -12.59,-7.41 z m -54.58,-57.91 c -0.32,5.72 4.05,10.59 9.78,10.9 5.69,0.31 10.56,-4.05 10.89,-9.76 l 1.47,-26.36 c 0.32,-5.71 -4.06,-10.59 -9.77,-10.9 -5.71,-0.31 -10.6,4.05 -10.9,9.77 z m 282.54,103.21 c -3.94,4.12 -3.84,10.68 0.28,14.63 4.12,3.96 10.68,3.84 14.64,-0.29 l 14.5,-15.03 c 3.97,-4.11 3.85,-10.66 -0.28,-14.63 -4.12,-3.96 -10.66,-3.83 -14.63,0.29 z m 120.32,10.33 c -3.13,4.79 -1.75,11.2 3.02,14.31 4.8,3.11 11.21,1.75 14.33,-3.04 l 18.42,-28.27 c 3.12,-4.8 1.76,-11.19 -3.03,-14.31 -4.8,-3.11 -11.22,-1.75 -14.31,3.04 z m 94.36,-17.59 c -2.31,5.25 0.08,11.37 5.3,13.67 5.26,2.3 11.37,-0.08 13.67,-5.31 l 9.44,-21.34 c 2.3,-5.24 -0.08,-11.34 -5.31,-13.66 -5.22,-2.3 -11.34,0.08 -13.65,5.31 z m 176.31,-63.07 c -3.98,4.1 -3.89,10.66 0.19,14.64 4.11,3.99 10.67,3.9 14.64,-0.2 l 13.63,-14.08 c 4.01,-4.11 3.89,-10.65 -0.18,-14.64 -4.1,-3.99 -10.65,-3.89 -14.65,0.2 z m 83.18,-57.63 c -2.66,5.06 -0.73,11.32 4.35,13.97 5.06,2.68 11.3,0.73 13.98,-4.32 l 13.17,-24.91 c 2.67,-5.05 0.72,-11.3 -4.34,-13.97 -5.06,-2.67 -11.32,-0.72 -13.99,4.34 z m 63.54,-158.13 c 1.37,5.55 7,8.93 12.56,7.53 5.55,-1.37 8.93,-7 7.53,-12.55 l -7.32,-29.27 c -1.38,-5.55 -7.02,-8.95 -12.57,-7.55 -5.55,1.37 -8.91,7.02 -7.53,12.57 z m -49.23,-114.59 c 3.6,4.44 10.11,5.1 14.55,1.5 4.44,-3.59 5.1,-10.12 1.51,-14.55 l -24.89,-30.76 c -3.61,-4.41 -10.14,-5.09 -14.56,-1.48 -4.43,3.6 -5.09,10.12 -1.51,14.55 z m -900.2,94.94 c -3.82,4.27 -3.44,10.84 0.83,14.63 4.28,3.8 10.83,3.42 14.64,-0.85 l 11.71,-13.17 c 3.81,-4.29 3.44,-10.83 -0.85,-14.65 -4.27,-3.81 -10.82,-3.42 -14.63,0.87 l -11.7,13.17"
         style="fill:#f1427d;fill-opacity:1;fill-rule:evenodd;stroke:none"
         id="path98" /><path
         d="m 2311.74,1648.05 c -4.68,3.28 -5.81,9.74 -2.53,14.43 3.31,4.67 9.78,5.81 14.44,2.51 l 24.89,-17.58 c 4.69,-3.28 5.83,-9.74 2.51,-14.42 -3.3,-4.68 -9.75,-5.82 -14.43,-2.51 z m 366.29,181.39 c -4.76,3.17 -6.08,9.59 -2.91,14.36 3.15,4.76 9.59,6.06 14.34,2.92 l 8.8,-5.87 c 4.76,-3.14 6.08,-9.58 2.91,-14.34 -3.15,-4.78 -9.59,-6.08 -14.34,-2.92 z m 14.36,151.02 c -4.66,3.31 -5.76,9.77 -2.43,14.44 3.32,4.65 9.78,5.73 14.43,2.43 l 20.48,-14.65 c 4.69,-3.31 5.76,-9.78 2.46,-14.43 -3.33,-4.65 -9.78,-5.75 -14.44,-2.43 z m -247.96,206.33 c -2.3,5.21 0.04,11.3 5.25,13.61 5.23,2.31 11.33,-0.05 13.63,-5.27 l 11.72,-26.36 c 2.3,-5.21 -0.06,-11.3 -5.26,-13.61 -5.22,-2.31 -11.33,0.05 -13.64,5.26 z m -341.97,-115.91 c -5.66,0.8 -9.59,6.07 -8.8,11.72 0.79,5.67 6.06,9.59 11.7,8.79 l 20.52,-2.92 c 5.64,-0.8 9.61,-6.05 8.8,-11.72 -0.81,-5.66 -6.07,-9.59 -11.72,-8.79 z m -385.59,-314.24 c -3.74,4.32 -3.28,10.85 1.05,14.59 4.32,3.74 10.85,3.27 14.59,-1.06 l 19.02,-21.95 c 3.74,-4.32 3.28,-10.85 -1.05,-14.61 -4.31,-3.73 -10.84,-3.26 -14.57,1.06 z m -100.79,175.02 c -1.24,1.59 -0.39,0.49 0.26,-0.77 v 0.45 z m 0.26,-2.92 c -5.74,0 -10.38,4.64 -10.38,10.37 0,5.73 4.64,10.38 10.38,10.38 12.11,0 12.2,-0.14 16.11,-5.18 0.12,-0.15 0.32,-0.4 3.16,-1.82 5.09,-2.53 7.16,-8.75 4.6,-13.84 -2.54,-5.12 -8.75,-7.18 -13.85,-4.65 -6.61,3.33 -8.82,5.82 -10.02,7.34 v -0.45 c 0.51,-1.02 0.88,-2.15 0,-2.15 z m 121.9,-81.5 c 4.27,3.83 10.82,3.49 14.65,-0.76 3.82,-4.26 3.48,-10.81 -0.77,-14.64 l -14.65,-13.18 c -4.25,-3.81 -10.81,-3.47 -14.63,0.78 -3.83,4.25 -3.48,10.81 0.76,14.63 z m 267.39,336.8 c -5.43,1.72 -8.45,7.53 -6.72,12.97 1.7,5.44 7.52,8.44 12.95,6.73 l 29.6,-9.44 c 5.42,-1.72 8.45,-7.53 6.73,-12.97 -1.72,-5.45 -7.53,-8.45 -12.97,-6.73 z m -103.77,-65.98 c -5.48,1.62 -8.61,7.37 -7.01,12.86 1.61,5.48 7.39,8.63 12.86,7.01 l 24.88,-7.32 c 5.49,-1.62 8.64,-7.36 7.01,-12.85 -1.62,-5.49 -7.35,-8.62 -12.83,-7.02 z m -152.29,-63.41 c -5.71,0 -10.38,4.66 -10.38,10.38 0,5.74 4.67,10.38 10.38,10.38 h 11.71 c 5.73,0 10.37,-4.64 10.37,-10.38 0,-5.72 -4.64,-10.38 -10.37,-10.38 z m 108.23,-140.43 c 0,5.75 4.64,10.38 10.38,10.38 5.74,0 10.38,-4.63 10.38,-10.38 v -43.93 c 0,-5.72 -4.64,-10.38 -10.38,-10.38 -5.74,0 -10.38,4.66 -10.38,10.38 z m -26.65,-194.31 c -3.82,4.28 -3.42,10.83 0.85,14.63 4.28,3.8 10.83,3.43 14.63,-0.85 l 23.44,-26.35 c 3.8,-4.29 3.42,-10.84 -0.87,-14.63 -4.27,-3.82 -10.81,-3.44 -14.61,0.85 z m 100.9,-55.38 c -4.47,3.53 -5.24,10.03 -1.7,14.5 3.56,4.47 10.05,5.24 14.5,1.72 l 27.83,-21.98 c 4.49,-3.55 5.24,-10.03 1.7,-14.52 -3.52,-4.47 -10.03,-5.24 -14.51,-1.7 z m 228.2,-32.34 c -5.34,2.02 -8.04,8.03 -5.98,13.37 2.02,5.36 8.02,8.04 13.38,6 l 30.73,-11.72 c 5.36,-2.02 8.04,-8.02 6,-13.36 -2.04,-5.36 -8.02,-8.05 -13.36,-6.01 z m 391.65,63.39 c -1.09,-5.62 -6.51,-9.31 -12.11,-8.23 -5.63,1.05 -9.32,6.49 -8.23,12.12 l 8.77,45.37 c 1.09,5.62 6.5,9.31 12.12,8.23 5.61,-1.05 9.31,-6.49 8.23,-12.12 z m 41.12,176.41 c 0.92,5.65 6.27,9.47 11.88,8.52 5.67,-0.94 9.48,-6.28 8.54,-11.92 l -4.4,-26.36 c -0.94,-5.63 -6.29,-9.45 -11.91,-8.5 -5.67,0.93 -9.45,6.27 -8.53,11.9 z m 46.8,128.63 c -0.81,5.65 3.14,10.91 8.8,11.71 5.67,0.8 10.91,-3.14 11.7,-8.8 l 2.95,-20.5 c 0.79,-5.65 -3.13,-10.9 -8.8,-11.71 -5.66,-0.81 -10.91,3.14 -11.74,8.8 z m -173.65,8.23 c -4.33,3.71 -4.84,10.26 -1.12,14.59 3.69,4.35 10.22,4.86 14.59,1.13 l 10.24,-8.77 c 4.35,-3.72 4.86,-10.26 1.14,-14.6 -3.73,-4.34 -10.25,-4.85 -14.59,-1.14 z m -95.54,66.21 c -4.16,3.92 -4.36,10.47 -0.45,14.64 3.92,4.16 10.47,4.37 14.64,0.45 l 23.43,-21.97 c 4.17,-3.92 4.36,-10.47 0.43,-14.63 -3.9,-4.16 -10.46,-4.36 -14.61,-0.44 z m -189.54,40.84 c -5.05,2.68 -7,8.93 -4.34,13.99 2.67,5.06 8.92,7 13.98,4.34 l 27.82,-14.65 c 5.06,-2.66 7.01,-8.91 4.35,-13.97 -2.67,-5.07 -8.93,-7 -13.98,-4.35 l -27.83,14.64"
         style="fill:#4ba6ce;fill-opacity:1;fill-rule:evenodd;stroke:none"
         id="path100" /><path
         d="m 343.73,2131.88 v 375.13 L 2235.33,1414.89 V 1039.77 L 343.73,2131.88"
         style="fill:#b2a29e;fill-opacity:1;fill-rule:evenodd;stroke:none"
         id="path102" /><path
         d="M 4126.94,2507.01 V 2131.88 L 2235.33,1039.77 v 375.12 l 1891.61,1092.12"
         style="fill:#766864;fill-opacity:1;fill-rule:evenodd;stroke:none"
         id="path104" /><path
         d="M 2235.33,3599.13 2695.59,5691.46 4587.19,4599.35 4126.94,2507.01 2235.33,3599.13"
         style="fill:#b2a29e;fill-opacity:1;fill-rule:evenodd;stroke:none"
         id="path106" /><path
         d="m 2235.33,3599.13 -314.23,266.64 411.7,1791.69 362.79,34 -460.26,-2092.33"
         style="fill:#948681;fill-opacity:1;fill-rule:evenodd;stroke:none"
         id="path108" /><path
         d="m 4126.94,2507.01 -198.24,144.87 411.68,1791.71 246.81,155.76 -460.25,-2092.34"
         style="fill:#948681;fill-opacity:1;fill-rule:evenodd;stroke:none"
         id="path110" /><path
         d="m 2695.59,5691.46 -19.45,223.32 1648.56,-928.99 262.49,-386.44 -1891.6,1092.11"
         style="fill:#948681;fill-opacity:1;fill-rule:evenodd;stroke:none"
         id="path112" /></g></g></svg>
